<svg width="59" height="118" viewBox="0 0 59 118" fill="none" xmlns="http://www.w3.org/2000/svg">
<path d="M19 2C19 0.89543 19.8954 0 21 0H36C37.1046 0 38 0.89543 38 2V29C38 30.1046 37.1046 31 36 31H21C19.8954 31 19 30.1046 19 29V2Z" fill="#191919"/>
<path d="M22 5H23V27H22V5Z" fill="#F5F5F5"/>
<path d="M28 5H29V27H28V5Z" fill="#F5F5F5"/>
<path d="M34 5H35V27H34V5Z" fill="#F5F5F5"/>
<path d="M35.202 45.5C35.202 47.433 34.5304 49 33.702 49C32.8735 49 32.202 47.433 32.202 45.5C32.202 43.567 32.8735 42 33.702 42C34.5304 42 35.202 43.567 35.202 45.5Z" fill="#191919"/>
<path d="M34.202 45.5C34.202 44.6357 34.05 43.9005 33.8436 43.4189C33.794 43.3032 33.7452 43.2129 33.702 43.1436C33.6588 43.2129 33.61 43.3032 33.5604 43.4189C33.354 43.9005 33.202 44.6357 33.202 45.5C33.202 46.3643 33.354 47.0995 33.5604 47.5811C33.6098 47.6964 33.6589 47.7862 33.702 47.8555C33.7451 47.7862 33.7941 47.6964 33.8436 47.5811C34.05 47.0995 34.202 46.3643 34.202 45.5ZM35.202 45.5C35.202 47.433 34.5304 49 33.702 49C32.8735 49 32.202 47.433 32.202 45.5C32.202 43.567 32.8735 42 33.702 42C34.5304 42 35.202 43.567 35.202 45.5Z" fill="#191919"/>
<path d="M31.202 45.5C31.202 47.433 30.5304 49 29.702 49C28.8735 49 28.202 47.433 28.202 45.5C28.202 43.567 28.8735 42 29.702 42C30.5304 42 31.202 43.567 31.202 45.5Z" fill="#191919"/>
<path d="M30.202 45.5C30.202 44.6357 30.05 43.9005 29.8436 43.4189C29.794 43.3032 29.7452 43.2129 29.702 43.1436C29.6588 43.2129 29.61 43.3032 29.5604 43.4189C29.354 43.9005 29.202 44.6357 29.202 45.5C29.202 46.3643 29.354 47.0995 29.5604 47.5811C29.6098 47.6964 29.6589 47.7862 29.702 47.8555C29.7451 47.7862 29.7941 47.6964 29.8436 47.5811C30.05 47.0995 30.202 46.3643 30.202 45.5ZM31.202 45.5C31.202 47.433 30.5304 49 29.702 49C28.8735 49 28.202 47.433 28.202 45.5C28.202 43.567 28.8735 42 29.702 42C30.5304 42 31.202 43.567 31.202 45.5Z" fill="#191919"/>
<path fill-rule="evenodd" clip-rule="evenodd" d="M31.0576 106.449V95.0361C32.7142 93.395 38.8065 91.1353 46.5476 94.3368C44.2777 100.947 38.276 105.821 31.0576 106.449ZM27.8921 106.449C24.9893 106.196 22.2841 105.258 19.9384 103.795L24.8089 97.6834V71.0402C25.8055 70.7741 26.8357 70.5928 27.8921 70.5009V106.449ZM44.6916 78.7735C39.0727 81.5659 33.2257 80.888 31.0576 79.9706V70.5009C36.7898 70.9994 41.7534 74.1767 44.6916 78.7735ZM47.5222 88.4749C47.5222 89.3265 47.4611 90.1637 47.3469 90.984C40.554 87.9935 34.2488 89.9802 31.0576 91.4557V83.0555C32.6162 83.5313 34.849 84.0232 37.4222 84.0232C40.1205 84.0232 43.1932 83.48 46.2512 81.8115C47.0711 83.8727 47.5222 86.1209 47.5222 88.4749ZM16.2583 100.759C13.2626 97.5368 11.4278 93.221 11.4278 88.4749C11.4278 83.7288 13.2626 79.413 16.2583 76.1915V100.759ZM29.4749 59C26.8799 59 24.3647 59.3382 21.9672 59.9682C20.0963 69.3121 12.0918 76.4388 2.33005 76.9715C0.830118 80.5061 0 84.3935 0 88.4749C0 104.754 13.1963 117.95 29.4749 117.95C35.9697 117.95 41.9704 115.845 46.8413 112.286C46.7385 111.438 46.6793 110.577 46.6793 109.702C46.6793 101.21 51.6683 93.8854 58.8735 90.4914C58.9187 89.8243 58.95 89.1535 58.95 88.4749C58.95 72.1963 45.7537 59 29.4749 59Z" fill="#191919"/>
<path d="M17.208 38.9441C17.3306 38.9311 17.4921 38.9455 17.6143 38.9646C17.6519 38.9707 17.6329 38.9964 17.6592 39.0017C17.7107 39.012 17.7587 38.9994 17.8096 39.0115C17.8264 39.0156 17.8061 39.0574 17.8233 39.0613C17.9205 39.0798 18.0128 39.069 18.1113 39.0779C18.5965 39.1219 19.0734 39.1379 19.5645 39.157C19.7264 39.1632 19.9236 39.201 20.0908 39.1843C20.1102 39.1822 20.0988 39.1454 20.1026 39.1423C20.1604 39.0964 20.1417 39.1705 20.1797 39.1804C20.3306 39.2194 20.4983 39.2229 20.6436 39.2087C20.7054 39.2026 20.6438 39.1296 20.7061 39.1706C20.7094 39.175 20.6949 39.2121 20.711 39.2165C20.7494 39.2259 20.8228 39.2193 20.8526 39.2224C20.9098 39.2286 20.9194 39.2278 20.9736 39.2283C21.0479 39.2292 21.1362 39.2488 21.2158 39.24C21.2328 39.238 21.2107 39.1982 21.2373 39.1912C21.2643 39.1844 21.3358 39.1877 21.3604 39.197C21.3843 39.2064 21.375 39.2372 21.3789 39.2449C21.414 39.3056 21.4966 39.2222 21.5078 39.2195C21.7026 39.1839 21.8699 39.2323 22.0527 39.2322C22.1916 39.232 22.3405 39.2163 22.4727 39.2185C22.6299 39.2213 22.7633 39.2427 22.916 39.239C22.9322 39.2387 22.9139 39.1917 22.9336 39.1912C23.1429 39.1857 23.3512 39.1906 23.5596 39.2224C23.5797 39.2261 23.5535 39.2665 23.5742 39.2722C23.7022 39.3063 23.9045 39.388 23.9805 39.2078C24.0671 39.2148 24.1725 39.2222 24.25 39.2585C24.2997 39.2819 24.2514 39.3274 24.3125 39.3083C24.3263 39.3041 24.3084 39.264 24.3291 39.2605C24.4165 39.246 24.5122 39.2594 24.5986 39.239C24.6159 39.2348 24.6117 39.2004 24.6162 39.1931C24.6579 39.1418 24.7274 39.2251 24.7432 39.2322C24.859 39.2784 24.9439 39.2603 25.0518 39.2615C25.0763 39.2614 25.0473 39.2141 25.0713 39.2126C25.196 39.2059 25.3252 39.2102 25.4473 39.2312C25.4745 39.236 25.4499 39.2766 25.4629 39.281C25.5202 39.2998 25.5329 39.2235 25.5879 39.24C25.5994 39.2435 25.5926 39.2782 25.5947 39.282C25.6276 39.3413 25.6563 39.2576 25.6651 39.2546C25.7727 39.2291 25.8423 39.3179 25.9463 39.3054C25.9577 39.3029 25.9309 39.2606 25.9649 39.2585C26.1979 39.2464 26.4451 39.2576 26.6758 39.2927C26.711 39.2983 26.6855 39.3314 26.6875 39.3357C26.7238 39.3983 26.7479 39.3166 26.7598 39.3113C26.852 39.2882 26.9383 39.3589 27.001 39.2576C27.3916 39.2927 27.7806 39.2362 28.168 39.3269C28.1729 39.3279 28.1644 39.3692 28.1738 39.3718C28.292 39.3953 28.2698 39.3302 28.3477 39.2507C28.3674 39.2307 28.4283 39.3267 28.4336 39.3337C28.4521 39.3593 28.4333 39.4191 28.4385 39.4265C28.492 39.4659 28.4838 39.2613 28.5557 39.2605C28.5579 39.2608 28.5487 39.2985 28.5547 39.3025C28.5736 39.3143 28.5929 39.2992 28.6113 39.3122C28.6532 39.3427 28.6683 39.4422 28.7324 39.3845C28.7406 39.3769 28.7284 39.2599 28.793 39.2654C28.8189 39.2677 28.933 39.2656 28.9649 39.2732C28.9959 39.2809 28.9747 39.3179 28.9766 39.3201C29.0625 39.3699 29.0302 39.3908 29.0733 39.4646C29.1161 39.5372 29.1046 39.3621 29.1221 39.3425C29.1401 39.3239 29.2022 39.3644 29.2178 39.3787C29.2333 39.393 29.2138 39.4174 29.2276 39.4255C29.3188 39.4784 29.2678 39.3381 29.2979 39.3103C29.3687 39.2445 29.4244 39.3747 29.4893 39.3874C29.5061 39.3902 29.4923 39.3609 29.5078 39.3581C29.5695 39.3477 29.6067 39.388 29.6768 39.3513C29.6883 39.3453 29.7454 39.2672 29.7822 39.324C29.7875 39.3322 29.7734 39.3646 29.7998 39.3718C29.8393 39.3826 29.9099 39.3904 29.9522 39.3796C29.9834 39.3716 29.9479 39.3181 29.9873 39.3347C30.0039 39.3424 29.9723 39.3733 30.0049 39.3845C30.0376 39.3958 30.1215 39.3944 30.1533 39.3933C30.1835 39.392 30.1687 39.3545 30.1699 39.3494C30.1855 39.3337 30.2466 39.3142 30.252 39.3142C30.5234 39.3093 30.7738 39.3767 31.0381 39.3542C31.0589 39.3525 31.0457 39.31 31.0488 39.3093C31.1196 39.2917 31.0637 39.4052 31.1133 39.4431C31.1061 39.3565 31.1355 39.3725 31.1856 39.363C31.2092 39.3585 31.1966 39.3255 31.1983 39.321C31.234 39.2701 31.2592 39.3359 31.2656 39.3494C31.2893 39.3988 31.315 39.3407 31.3311 39.3738C31.3469 39.4066 31.3105 39.4545 31.3584 39.4539C31.3714 39.4226 31.3368 39.3419 31.3731 39.3289C31.5107 39.2795 31.7675 39.3428 31.8779 39.3494C31.988 39.3559 32.0237 39.3509 32.0879 39.3621C32.2037 39.3822 32.1616 39.3222 32.2334 39.2947C32.3057 39.2672 32.2709 39.4152 32.2813 39.447C32.2914 39.4779 32.3029 39.4456 32.3154 39.4626C32.3281 39.4801 32.3005 39.502 32.3301 39.5085C32.3599 39.5151 32.4416 39.4588 32.4522 39.4255C32.4745 39.3551 32.4378 39.2814 32.5166 39.3074C32.52 39.3109 32.5067 39.3474 32.5235 39.3513C32.6613 39.3813 32.8047 39.3834 32.9424 39.4099C32.9609 39.4139 32.9442 39.457 32.9551 39.4597C33.0698 39.4874 33.0289 39.4138 33.0918 39.3328C33.0777 39.4405 33.1124 39.5068 33.1992 39.5076C33.2515 39.508 33.2427 39.4607 33.2764 39.4275C33.2865 39.4175 33.3244 39.4496 33.3311 39.4275C33.3529 39.3553 33.3182 39.2746 33.4072 39.3064C33.4112 39.3079 33.3995 39.3479 33.4131 39.3503C33.5007 39.3657 33.5115 39.2902 33.6065 39.281C33.681 39.2739 33.8136 39.3204 33.8985 39.3279C33.8969 39.4485 33.9762 39.4209 34.0088 39.3376C34.0638 39.3411 34.1236 39.3359 34.1768 39.3474C34.195 39.3513 34.1835 39.3861 34.1856 39.3904C34.221 39.4499 34.245 39.3682 34.2568 39.365C34.3856 39.334 34.4905 39.3957 34.6133 39.3357C34.6177 39.3335 34.6253 39.2498 34.6582 39.3113C34.6584 39.3169 34.6212 39.3533 34.6777 39.3562C34.7357 39.3593 34.8446 39.4049 34.9248 39.366C34.9443 39.3566 34.9938 39.2881 35.0332 39.3415C35.038 39.3493 35.0326 39.3733 35.0401 39.3865C35.0644 39.4283 35.0778 39.3443 35.1065 39.4158C35.1353 39.4881 35.1954 39.5426 35.2764 39.4929C35.2789 39.4915 35.298 39.4243 35.3233 39.4246C35.3639 39.4263 35.4224 39.4406 35.4649 39.4402C35.4848 39.4395 35.4721 39.398 35.4756 39.3972C35.6121 39.3738 35.7093 39.4113 35.8555 39.4275C35.8823 39.4305 35.9598 39.3735 36.0117 39.4187C36.0687 39.4682 36.0105 39.6738 36.1416 39.6247C36.1945 39.6048 36.2614 39.3441 36.3565 39.4792C36.5409 39.4457 36.7116 39.5154 36.8965 39.4675C36.9049 39.465 36.9307 39.3929 36.9502 39.3933C36.9792 39.3949 36.9959 39.4291 37.0166 39.4314C37.1033 39.4415 37.1831 39.4122 37.2666 39.4167C37.2978 39.4187 37.2875 39.4538 37.3252 39.4558C37.3628 39.4573 37.3883 39.411 37.4395 39.4333C37.4782 39.4506 37.517 39.5454 37.5684 39.5564C37.5703 39.4631 37.6054 39.4647 37.668 39.4402C37.6798 39.4355 37.6681 39.4042 37.6729 39.3992C37.6961 39.3824 37.7182 39.4086 37.7402 39.3904C37.7453 39.3851 37.7458 39.3551 37.75 39.3494C37.7873 39.3024 37.8487 39.3739 37.8594 39.3865C37.8999 39.4339 37.9192 39.3922 37.9502 39.4109C37.981 39.4296 37.9347 39.4532 37.9707 39.4646C38.0458 39.4881 38.1425 39.4827 38.2188 39.4841C38.2485 39.4844 38.2289 39.4433 38.2324 39.4412C38.2953 39.4303 38.3587 39.4752 38.3936 39.3904C38.4372 39.6097 38.4317 39.3702 38.5215 39.4138C38.5286 39.4174 38.5379 39.5206 38.5108 39.5359C38.4836 39.5511 38.442 39.519 38.4043 39.5427C38.3946 39.5502 38.3456 39.6435 38.3379 39.6511C38.2838 39.6966 38.2754 39.5455 38.2725 39.5339C38.2397 39.442 38.1766 39.5462 38.1602 39.5535C38.0849 39.5866 38.021 39.565 37.958 39.5886C37.9168 39.6039 37.9123 39.706 37.8799 39.7029C37.7726 39.6923 37.735 39.5509 37.6338 39.6736C37.6122 39.7 37.6334 39.8105 37.5557 39.7234C37.5505 39.7175 37.4933 39.6385 37.46 39.6882C37.4558 39.6946 37.4557 39.7275 37.4502 39.7302C37.4131 39.7478 37.3881 39.7218 37.3477 39.7341C37.3073 39.7465 37.2589 39.7646 37.2129 39.7537C37.1852 39.7471 37.1491 39.6875 37.1358 39.6726C37.0983 39.6302 37.0585 39.6991 37.0352 39.6482C37.0117 39.5965 37.0572 39.5176 36.9961 39.4841C36.9938 39.5682 36.9881 39.6545 36.9844 39.739C36.8495 39.736 36.7164 39.7089 36.5811 39.7126C36.565 39.714 36.5813 39.7588 36.5635 39.7605C36.4878 39.7675 36.4213 39.735 36.3428 39.7478C36.2819 39.758 36.215 39.8061 36.1514 39.8181C36.1125 39.7219 36.0179 39.7546 35.9492 39.7458C35.9255 39.7427 35.9269 39.7173 35.9102 39.7087C35.8456 39.6777 35.8751 39.7627 35.8574 39.7761C35.7819 39.8322 35.7749 39.6405 35.6856 39.6453C35.6791 39.649 35.6231 39.7484 35.6152 39.7546C35.5648 39.796 35.6066 39.7195 35.5752 39.7117C35.5173 39.6978 35.477 39.673 35.4092 39.7029C35.3894 39.7118 35.3413 39.7758 35.3027 39.7263C35.2979 39.7198 35.3004 39.6881 35.2969 39.6843C35.2231 39.6512 35.2209 39.7576 35.1787 39.7937C35.1368 39.8292 35.0725 39.7568 35.0586 39.7351C35.0239 39.6803 35.085 39.7112 35.0869 39.7058C35.1088 39.642 35.0607 39.6526 35.0244 39.6472C35.0191 39.5431 34.9689 39.5494 34.9873 39.6423C34.9894 39.6523 35.0165 39.6431 35.0244 39.6472C34.9926 39.7495 34.9375 39.763 34.876 39.6677C34.8471 39.6228 34.8738 39.5704 34.7861 39.5896C34.7467 39.5985 34.7616 39.6696 34.7266 39.6892C34.6465 39.7338 34.5426 39.6671 34.46 39.6775C34.43 39.6813 34.459 39.7214 34.4385 39.7253C34.3841 39.736 34.3359 39.7063 34.2813 39.7214C34.2771 39.7244 34.2881 39.7639 34.2715 39.7644C34.1428 39.7692 34.0308 39.7427 33.8965 39.7419C33.8315 39.7416 33.7148 39.7641 33.6475 39.7595C33.5308 39.7518 33.3868 39.6922 33.2871 39.7068C33.2228 39.7162 33.2365 39.7569 33.209 39.7849C33.1552 39.8393 33.0597 39.7424 33.0469 39.7273C33.0467 39.7268 33.1024 39.717 33.0733 39.696C33.0559 39.652 33.0475 39.7271 33.0469 39.7273C33.0377 39.7177 32.9284 39.708 32.9053 39.7156C32.8935 39.7198 32.8992 39.7575 32.8936 39.7605C32.7441 39.7954 32.594 39.8061 32.4424 39.7878C32.4398 39.7869 32.4438 39.7432 32.4375 39.7419C32.3499 39.7226 32.2939 39.7756 32.2217 39.8074C32.1494 39.8391 32.0917 39.8285 32.0488 39.7537C31.9944 39.7631 31.9162 39.7298 31.8711 39.7097C31.8264 39.6898 31.8194 39.7731 31.8154 39.7761C31.6919 39.8299 31.6203 39.7818 31.4922 39.7742C31.4313 39.7704 31.3103 39.7825 31.2442 39.7917C31.1921 39.7992 31.1602 39.7792 31.1123 39.7917C31.106 39.7934 31.1117 39.8289 31.1104 39.8328C31.0568 39.8779 31.0822 39.7862 31.0713 39.7693C31.0311 39.7092 31.0062 39.6776 30.9375 39.7058C30.9217 39.7123 30.8756 39.8448 30.8467 39.8533C30.8091 39.8632 30.8226 39.8153 30.7832 39.8269C30.7803 39.83 30.7799 39.8572 30.7568 39.8562C30.6441 39.8506 30.5205 39.8327 30.4033 39.8357C30.3881 39.8368 30.4077 39.8833 30.3848 39.8845C30.2764 39.89 30.1573 39.8878 30.0518 39.866C30.0263 39.8603 30.0424 39.8281 30.0371 39.8181C30.0024 39.7593 29.9525 39.8448 29.9443 39.8464C29.751 39.8873 29.6024 39.8096 29.4053 39.8464C29.3933 39.8502 29.3119 39.9399 29.2754 39.8621C29.2727 39.8564 29.2363 39.777 29.2041 39.8318C29.2034 39.837 29.2238 39.8757 29.1856 39.8718C29.1459 39.8676 29.0818 39.8955 29.0274 39.8503C29.0101 39.836 28.9693 39.7558 28.918 39.8191C28.9146 39.8235 28.8351 39.968 28.8067 39.8689C28.8021 39.8525 28.8064 39.7467 28.7451 39.8005C28.7334 39.811 28.7546 39.8347 28.7236 39.8494C28.6763 39.872 28.6139 39.8444 28.5557 39.8914C28.5455 39.8997 28.5015 39.9711 28.4668 39.9167C28.4614 39.9083 28.4719 39.8732 28.4541 39.8689C28.367 39.85 28.275 39.8737 28.1865 39.8494C28.1555 39.8406 28.1713 39.7835 28.1387 39.7683C28.1059 39.7531 28.04 39.7384 28.0059 39.7644C27.9719 39.7906 28.0092 39.8812 27.958 39.8884C27.7353 39.9199 27.5144 39.8669 27.292 39.8591C27.2597 39.8582 27.2865 39.8907 27.2383 39.8914C27.0591 39.8938 26.7493 39.9242 26.5938 39.8552C26.4694 39.8 26.626 39.7576 26.5313 39.7351C26.4853 39.7244 26.4349 39.8294 26.4238 39.8328C26.3158 39.8662 26.2408 39.8206 26.1436 39.8347C26.1236 39.8377 26.1426 39.88 26.126 39.8826C26.0675 39.89 26.0052 39.8703 25.9492 39.8738C25.9246 39.8757 25.929 39.9083 25.9063 39.906C25.8511 39.9003 25.8019 39.8867 25.7481 39.8562C25.7432 39.8534 25.7762 39.8128 25.7354 39.8113C25.6692 39.8089 25.5869 39.7781 25.5108 39.8093C25.4884 39.8189 25.4875 39.893 25.4395 39.8425C25.4293 39.8318 25.4413 39.7417 25.3848 39.8191C25.3744 39.8328 25.2808 39.9359 25.2344 39.8689C25.2221 39.8512 25.1903 39.7783 25.1631 39.7898C25.1603 39.7932 25.1734 39.8319 25.1514 39.8357C25.0723 39.8487 24.9895 39.8447 24.9082 39.8572C24.8865 39.8606 24.9182 39.9012 24.8858 39.905C24.7967 39.9154 24.6857 39.9053 24.5986 39.8923C24.5665 39.8875 24.5883 39.8531 24.586 39.8494C24.5484 39.7888 24.5262 39.8709 24.5137 39.8757C24.4362 39.9043 24.3771 39.8657 24.3057 39.8757C24.2859 39.8784 24.2998 39.9181 24.2959 39.9216C24.2555 39.9554 24.2848 39.8861 24.2598 39.8777C24.1875 39.8557 24.1064 39.858 24.0332 39.863C24.0066 39.8651 24.0366 39.9105 24.0127 39.9119C23.87 39.9197 23.7213 39.9154 23.582 39.8904C23.5562 39.8854 23.5727 39.8506 23.5674 39.8425C23.5301 39.7873 23.4754 39.8613 23.4619 39.8699C23.4042 39.903 23.3811 39.8729 23.3301 39.8787C23.081 39.9073 22.7732 39.8864 22.5381 39.8738C22.2319 39.8575 21.9942 39.8242 21.7022 39.8328C21.6836 39.8333 21.7016 39.8796 21.6856 39.8806C21.479 39.8918 21.2754 39.874 21.0684 39.8874C21.0519 39.8889 21.0759 39.9321 21.0488 39.9353C20.9929 39.942 20.9218 39.9396 20.8652 39.9255C20.8381 39.9186 20.8744 39.8808 20.8467 39.8747C20.7821 39.8606 20.7128 39.8579 20.6465 39.865C20.6184 39.8682 20.6607 39.9133 20.624 39.9138C20.3738 39.9183 20.1279 39.9263 19.875 39.8679C19.8577 39.8639 19.8426 39.7722 19.8057 39.7898C19.8029 39.8151 19.803 39.8448 19.8018 39.8718C19.4374 39.8865 19.0764 39.8552 18.711 39.8503C18.6961 39.8507 18.722 39.8983 18.6924 39.8982C18.5199 39.8975 18.3523 39.9112 18.1758 39.863C18.1583 39.8583 18.1669 39.773 18.1152 39.7859C18.1046 39.7884 18.0287 39.7998 18.0088 39.8181C18.0068 39.8223 18.0194 39.8597 17.9951 39.8611C17.8496 39.8671 17.697 39.858 17.5518 39.8337C17.5284 39.8297 17.5526 39.7883 17.5361 39.7849C17.4177 39.7624 17.289 39.7939 17.1758 39.7556C17.1 39.7297 17.1272 39.656 17.0869 39.5837C17.0802 39.5739 17.0346 39.5715 17.0322 39.53C17.026 39.4244 17.0484 39.3086 17.0391 39.196C17.0368 39.1721 16.9746 39.1979 17.0117 39.1394C17.0143 39.1355 17.0599 39.1163 17.0713 39.0964C17.0791 39.0827 17.0651 39.0398 17.0811 39.0222C17.097 39.0046 17.1142 39.04 17.1406 39.0193C17.1669 38.9984 17.1557 38.95 17.208 38.9441ZM36.7178 39.5964C36.6632 39.5305 36.6256 39.6275 36.6641 39.6785C36.7023 39.7287 36.7339 39.6171 36.7178 39.5964ZM17.2393 39.5613C17.2213 39.6088 17.2888 39.6126 17.2744 39.5632C17.2732 39.5613 17.2425 39.5597 17.2393 39.5613ZM37.8447 39.4958C37.8248 39.4672 37.7673 39.5002 37.792 39.5359C37.8119 39.5645 37.8693 39.5315 37.8447 39.4958ZM29.4658 39.4685C29.4675 39.5091 29.5012 39.4972 29.4902 39.4597C29.4872 39.4577 29.4654 39.4567 29.4658 39.4685ZM38.7266 39.3298C38.7534 39.3338 38.6669 39.3854 38.7022 39.4011C38.7668 39.4295 38.81 39.3198 38.876 39.3787C38.8879 39.3895 38.8071 39.4935 38.7988 39.4929C38.6581 39.4846 38.5732 39.3101 38.7266 39.3298ZM31.6084 39.4382C31.5903 39.4857 31.6578 39.4896 31.6436 39.4402C31.6421 39.4382 31.6092 39.4363 31.6084 39.4382ZM27.9961 39.363C27.9556 39.4407 28.1126 39.4495 28.0781 39.3679C28.0763 39.3637 27.9992 39.3592 27.9961 39.363Z" fill="#191919"/>
<path d="M38.5657 50.7239C38.5744 50.6529 38.7485 50.6103 38.7288 50.6878C38.7245 50.7009 38.6733 50.6577 38.6575 50.6751C38.6288 50.7078 38.7381 50.7297 38.6799 50.763C38.6691 50.7691 38.5651 50.7281 38.5657 50.7239ZM38.9192 39.7025C38.9231 39.7038 38.9423 39.7269 38.9622 39.7327C38.9759 39.7367 39.0187 39.7296 39.0364 39.7376C39.054 39.7457 39.0186 39.7545 39.0393 39.7679C39.0604 39.781 39.1088 39.7755 39.1145 39.8021C39.1275 39.8641 39.1131 39.9454 39.094 40.0071C39.0881 40.0261 39.0626 40.017 39.0569 40.0296C39.0466 40.0557 39.0594 40.0809 39.0471 40.1068C39.0423 40.1149 39.0007 40.1047 38.9973 40.1136C38.9789 40.1627 38.9896 40.2094 38.9807 40.2591C38.9367 40.5045 38.9207 40.7461 38.9016 40.9945C38.8952 41.0763 38.8576 41.1756 38.8743 41.2601C38.8762 41.27 38.9132 41.2641 38.9163 41.2659C38.9622 41.2952 38.8881 41.2858 38.8782 41.305C38.8392 41.3812 38.8357 41.466 38.8499 41.5394C38.856 41.5706 38.929 41.5401 38.8879 41.5716C38.8836 41.5733 38.8461 41.5662 38.842 41.5745C38.8329 41.5941 38.8393 41.6308 38.8362 41.6458C38.8301 41.6744 38.8308 41.6794 38.8303 41.7064C38.8294 41.7439 38.8097 41.7891 38.8186 41.8294C38.8206 41.838 38.8602 41.8268 38.8674 41.8402C38.8742 41.8539 38.871 41.8904 38.8616 41.9027C38.8522 41.9146 38.8215 41.9095 38.8137 41.9114C38.7532 41.9291 38.8357 41.9709 38.8391 41.9769C38.8747 42.0755 38.8263 42.1607 38.8264 42.2532C38.8267 42.3234 38.8423 42.3984 38.8401 42.4652C38.8373 42.5447 38.8158 42.6124 38.8196 42.6898C38.8207 42.6976 38.8669 42.6887 38.8674 42.6986C38.8729 42.8044 38.868 42.9096 38.8362 43.015C38.8324 43.0251 38.792 43.0123 38.7864 43.0228C38.7523 43.0875 38.6707 43.1895 38.8508 43.2278C38.8438 43.2717 38.8364 43.3253 38.8 43.3646C38.7767 43.3896 38.7314 43.3652 38.7502 43.3958C38.7545 43.4028 38.7946 43.3941 38.7981 43.4046C38.8123 43.4486 38.7994 43.4968 38.8196 43.5403C38.8238 43.5492 38.8586 43.5477 38.8655 43.5501C38.9164 43.571 38.8347 43.6052 38.8264 43.6136C38.7802 43.6722 38.7982 43.7153 38.7971 43.7698C38.7972 43.7823 38.8445 43.7675 38.8459 43.7796C38.8527 43.8427 38.8484 43.9082 38.8274 43.97C38.8226 43.9838 38.7821 43.9713 38.7776 43.9778C38.7588 44.0068 38.8351 44.0135 38.8186 44.0413C38.8145 44.0469 38.7804 44.0432 38.7766 44.0443C38.7169 44.061 38.8021 44.0761 38.804 44.0804C38.8291 44.1347 38.7409 44.1695 38.7532 44.222C38.7548 44.2283 38.7979 44.2144 38.8 44.2318C38.8122 44.3496 38.8009 44.4745 38.7659 44.5911C38.7605 44.6093 38.727 44.5968 38.7229 44.598C38.6607 44.6163 38.7421 44.6281 38.7473 44.6341C38.7704 44.6808 38.6997 44.7245 38.801 44.7562C38.7659 44.9537 38.8222 45.1501 38.7317 45.346C38.7307 45.3485 38.69 45.3444 38.6868 45.3489C38.6632 45.4088 38.7283 45.3982 38.8079 45.4378C38.8279 45.4478 38.7319 45.4781 38.7249 45.4808C38.6991 45.4903 38.6384 45.4808 38.6321 45.4837C38.5927 45.5107 38.7969 45.5061 38.7981 45.5423C38.7977 45.5434 38.7599 45.5392 38.7561 45.5423C38.7447 45.5518 38.7593 45.5614 38.7463 45.5706C38.7159 45.5919 38.6162 45.5997 38.6741 45.6321C38.6816 45.6363 38.7987 45.6298 38.7932 45.6624C38.7909 45.6755 38.793 45.7332 38.7854 45.7493C38.7778 45.7652 38.7407 45.7542 38.7385 45.7552C38.6887 45.7987 38.6677 45.7822 38.594 45.804C38.5212 45.8257 38.6965 45.8196 38.7161 45.8284C38.7351 45.8374 38.6943 45.8693 38.6799 45.8773C38.6656 45.8851 38.6411 45.8752 38.6331 45.8821C38.5805 45.9282 38.7205 45.9031 38.7483 45.9183C38.8135 45.954 38.6846 45.9813 38.6711 46.014C38.6677 46.0228 38.6973 46.0162 38.7004 46.0237C38.711 46.055 38.6704 46.0742 38.7073 46.1097C38.7133 46.1155 38.7918 46.1447 38.7346 46.1634C38.7264 46.166 38.6944 46.1584 38.6868 46.1712C38.6759 46.1911 38.6681 46.2279 38.679 46.2493C38.6873 46.2648 38.7404 46.2471 38.7239 46.2669C38.7159 46.2749 38.6852 46.2593 38.6741 46.2757C38.6629 46.2924 38.6642 46.3349 38.6653 46.3509C38.667 46.3658 38.7039 46.3582 38.7092 46.3587C38.7248 46.3666 38.7444 46.398 38.7444 46.4007C38.7492 46.538 38.6819 46.6645 38.7043 46.7982C38.7061 46.8087 38.7486 46.8024 38.7493 46.804C38.7661 46.8393 38.6533 46.8112 38.6155 46.8362C38.7015 46.8326 38.6864 46.8474 38.6956 46.8724C38.7001 46.8844 38.7334 46.8783 38.7375 46.8792C38.7885 46.8973 38.7227 46.9101 38.7092 46.9134C38.6599 46.9254 38.7179 46.9384 38.6848 46.9466C38.652 46.9545 38.6041 46.9361 38.6047 46.9603C38.636 46.9668 38.7164 46.9489 38.7297 46.9671C38.7794 47.0367 38.7158 47.167 38.7092 47.223C38.7026 47.2787 38.7077 47.2969 38.6965 47.3294C38.6766 47.3877 38.7363 47.3667 38.7639 47.4027C38.7914 47.4392 38.6434 47.4218 38.6116 47.4271C38.5807 47.4322 38.6128 47.4383 38.5959 47.4446C38.5786 47.451 38.5568 47.437 38.55 47.4515C38.5435 47.4665 38.5998 47.5076 38.6331 47.513C38.7035 47.5243 38.7772 47.5063 38.7512 47.5462C38.7474 47.5478 38.7111 47.5416 38.7073 47.5501C38.6775 47.6196 38.675 47.6916 38.6487 47.7611C38.645 47.7706 38.6015 47.7623 38.5989 47.7679C38.5712 47.8259 38.6448 47.8054 38.7258 47.8372C38.618 47.8301 38.5517 47.8479 38.551 47.8919C38.5509 47.9181 38.598 47.9139 38.6311 47.931C38.6404 47.9363 38.6091 47.9549 38.6311 47.9583C38.7034 47.9694 38.7844 47.952 38.7522 47.9974C38.7498 47.9992 38.7109 47.9927 38.7082 47.9993C38.6926 48.0437 38.768 48.0493 38.7776 48.097C38.7848 48.1347 38.7382 48.2025 38.7307 48.2454H38.7278C38.7755 48.2639 38.7809 48.2864 38.7209 48.3011C38.7175 48.3289 38.7226 48.3592 38.7112 48.3861C38.7072 48.3953 38.672 48.3898 38.6682 48.3909C38.6092 48.4087 38.6894 48.42 38.6936 48.4261C38.7246 48.4912 38.6628 48.5446 38.7229 48.6068C38.7251 48.609 38.8088 48.6126 38.7473 48.6292C38.7417 48.6293 38.7055 48.6109 38.7024 48.639C38.6994 48.6682 38.6543 48.7234 38.6926 48.764C38.702 48.7738 38.7705 48.7987 38.717 48.8187C38.7096 48.8212 38.6854 48.8188 38.6721 48.8226C38.6302 48.8349 38.7145 48.8422 38.6428 48.8568C38.5705 48.8713 38.5158 48.9017 38.5657 48.9427C38.5676 48.944 38.6347 48.9533 38.634 48.9661C38.6323 48.9867 38.618 49.0159 38.6184 49.0374C38.6186 49.0477 38.6606 49.0415 38.6614 49.0433C38.6847 49.1123 38.6473 49.1617 38.6311 49.2357C38.6287 49.2494 38.6848 49.2886 38.6399 49.3148C38.5898 49.3433 38.3849 49.314 38.4338 49.3802C38.4541 49.4069 38.7143 49.4406 38.5793 49.4886C38.6129 49.5819 38.5432 49.6685 38.5911 49.762C38.5934 49.7663 38.6663 49.7795 38.6653 49.7894C38.6634 49.8039 38.6294 49.8121 38.6272 49.8226C38.6171 49.8663 38.6462 49.9064 38.6418 49.9486C38.6402 49.9646 38.6047 49.9596 38.6028 49.9788C38.6014 49.9978 38.6474 50.0107 38.6252 50.0364C38.6082 50.0561 38.5132 50.0758 38.5022 50.1019C38.5957 50.1029 38.5937 50.1209 38.6184 50.1527C38.6235 50.1584 38.6544 50.1522 38.6594 50.1546C38.6762 50.1664 38.65 50.1776 38.6682 50.1888C38.6738 50.1913 38.7034 50.1916 38.7092 50.1937C38.7562 50.2126 38.6846 50.244 38.6721 50.2493C38.6249 50.2698 38.6664 50.2795 38.6477 50.2952C38.6291 50.3107 38.6054 50.2871 38.594 50.305C38.5705 50.343 38.5759 50.3924 38.5745 50.431C38.5745 50.4459 38.6162 50.4357 38.6174 50.4378C38.6282 50.4696 38.5833 50.5022 38.6682 50.5198C38.4488 50.5419 38.6887 50.5388 38.6448 50.5843C38.6371 50.5878 38.5376 50.5919 38.5227 50.5784C38.5075 50.5647 38.5396 50.5438 38.5159 50.5247C38.5085 50.5198 38.4133 50.494 38.4075 50.4905C38.3621 50.4631 38.5141 50.4588 38.5247 50.4573C38.6154 50.441 38.5148 50.4105 38.5051 50.4017C38.472 50.3637 38.4934 50.3309 38.47 50.2991C38.4548 50.2785 38.3547 50.276 38.3557 50.2601C38.366 50.2056 38.5079 50.1864 38.385 50.1351C38.3587 50.1241 38.248 50.1344 38.3352 50.095C38.3415 50.0923 38.4198 50.064 38.3704 50.0472C38.364 50.0451 38.3313 50.0451 38.3284 50.0423C38.3108 50.0236 38.3365 50.0109 38.3245 49.9905C38.3121 49.9702 38.2941 49.9455 38.3049 49.9222C38.3114 49.9082 38.3707 49.89 38.386 49.8831C38.4284 49.8642 38.3595 49.8441 38.4104 49.8323C38.4621 49.8205 38.541 49.843 38.5745 49.8118C38.4904 49.8107 38.4041 49.8078 38.3196 49.806C38.3226 49.738 38.3496 49.6711 38.3459 49.6028C38.3454 49.5945 38.3008 49.6027 38.2981 49.5941C38.2909 49.5557 38.3236 49.5216 38.3108 49.4818C38.3006 49.451 38.2525 49.4173 38.2405 49.3851C38.3367 49.3654 38.304 49.3173 38.3127 49.2825C38.3159 49.2707 38.3413 49.2714 38.3499 49.263C38.3808 49.2304 38.2958 49.2456 38.2825 49.2366C38.2257 49.1983 38.4174 49.1948 38.4133 49.1497C38.4131 49.1473 38.3103 49.1176 38.304 49.1136C38.2627 49.0881 38.3394 49.1091 38.3469 49.0931C38.3608 49.0638 38.3857 49.0435 38.3557 49.0091C38.3464 48.999 38.283 48.9748 38.3323 48.9554C38.3387 48.9529 38.3705 48.9542 38.3743 48.9525C38.4074 48.9151 38.301 48.9142 38.2649 48.8929C38.2296 48.8717 38.3018 48.8393 38.3235 48.8323C38.3783 48.8148 38.3474 48.8451 38.3528 48.846C38.4167 48.8571 38.406 48.8331 38.4114 48.8148C38.5155 48.8121 38.5091 48.7869 38.4163 48.7962C38.4064 48.7972 38.4154 48.8107 38.4114 48.8148C38.309 48.7987 38.2955 48.7707 38.3909 48.7396C38.4357 48.725 38.488 48.7388 38.469 48.6946C38.4604 48.6746 38.3893 48.6819 38.3694 48.6644C38.3248 48.6239 38.3911 48.5714 38.3811 48.5296C38.3773 48.5145 38.3376 48.5289 38.3332 48.5189C38.3226 48.4913 38.3523 48.4664 38.3372 48.4388C38.3333 48.4369 38.2947 48.4422 38.2942 48.4339C38.2894 48.3689 38.3158 48.3123 38.3166 48.2445C38.317 48.2116 38.2946 48.1526 38.2991 48.1185C38.3067 48.0594 38.3664 47.9863 38.3518 47.9359C38.3424 47.9035 38.3016 47.9105 38.2737 47.8968C38.2194 47.8697 38.3157 47.8215 38.3313 47.8148C38.3318 47.8146 38.3414 47.8424 38.3625 47.8275C38.4066 47.8187 38.3317 47.8151 38.3313 47.8148C38.341 47.8105 38.3508 47.754 38.343 47.7425C38.3388 47.7365 38.3004 47.7396 38.2981 47.7366C38.2632 47.6612 38.2526 47.5856 38.2707 47.5091C38.2715 47.5078 38.3143 47.5092 38.3166 47.5062C38.3361 47.4618 38.2829 47.4334 38.2512 47.3968C38.2195 47.3602 38.2302 47.3315 38.3049 47.3099C38.2955 47.2823 38.3288 47.2419 38.3489 47.2191C38.3679 47.1969 38.2873 47.1937 38.2825 47.1917C38.2287 47.1291 38.2768 47.0926 38.2844 47.0277C38.2881 46.9969 38.2761 46.9361 38.2668 46.9027C38.2594 46.8762 38.2796 46.8596 38.2668 46.8353C38.2646 46.8322 38.2288 46.8351 38.2258 46.8343C38.1805 46.8071 38.2728 46.8204 38.2893 46.8148C38.3494 46.7944 38.3811 46.7822 38.3528 46.7474C38.345 46.7392 38.2134 46.716 38.2053 46.7015C38.1954 46.6825 38.2433 46.6892 38.2317 46.6693C38.2285 46.6678 38.2011 46.6673 38.2024 46.6556C38.2081 46.5986 38.2258 46.5361 38.2229 46.4769C38.2211 46.4696 38.1755 46.4794 38.1741 46.4681C38.1685 46.4132 38.1707 46.3526 38.1926 46.2991C38.1984 46.2863 38.2308 46.2942 38.2405 46.2913C38.2985 46.274 38.2158 46.25 38.2122 46.2454C38.1711 46.1475 38.249 46.0718 38.2122 45.972C38.2085 45.966 38.1187 45.9251 38.1965 45.9066C38.2019 45.9053 38.2817 45.8867 38.2268 45.8704C38.2216 45.8701 38.1827 45.8802 38.1868 45.8607C38.1907 45.8406 38.1631 45.808 38.2082 45.7806C38.2225 45.7719 38.3026 45.7519 38.2395 45.7259C38.235 45.7242 38.0905 45.6836 38.1897 45.6693C38.2061 45.6669 38.3118 45.669 38.2581 45.638C38.2476 45.6321 38.2239 45.6429 38.2092 45.6273C38.1866 45.6033 38.2142 45.5718 38.1672 45.5423C38.1578 45.5369 38.0883 45.5148 38.1418 45.4974C38.1504 45.4946 38.1858 45.4998 38.1897 45.4905C38.2084 45.4465 38.185 45.4004 38.2092 45.3558C38.2178 45.3399 38.275 45.3479 38.2903 45.3314C38.3055 45.3148 38.3201 45.2812 38.2942 45.264C38.2681 45.2469 38.1783 45.2658 38.1702 45.2405C38.1387 45.128 38.1916 45.016 38.1995 44.9036C38.2006 44.887 38.1682 44.9004 38.1672 44.8763C38.1648 44.7857 38.1346 44.6289 38.2034 44.5501C38.2586 44.4871 38.301 44.5661 38.3235 44.5179C38.3334 44.4949 38.231 44.4701 38.2258 44.4642C38.1921 44.4094 38.2382 44.3709 38.2239 44.3216C38.2199 44.3121 38.1781 44.3214 38.176 44.3128C38.1688 44.2833 38.1883 44.2521 38.1848 44.2239C38.1831 44.2115 38.151 44.2136 38.1526 44.2025C38.1582 44.1746 38.172 44.1495 38.2024 44.1224C38.2052 44.1199 38.2458 44.1362 38.2473 44.1155C38.2497 44.0821 38.2802 44.0407 38.2493 44.0023C38.2399 43.9909 38.1656 43.9904 38.2161 43.9661C38.2268 43.961 38.3168 43.9674 38.2395 43.9388C38.2266 43.934 38.1224 43.8852 38.1897 43.8616C38.2079 43.8553 38.2801 43.8401 38.2688 43.8265C38.267 43.8246 38.2269 43.8319 38.2229 43.8206C38.2098 43.7805 38.214 43.7378 38.2014 43.6966C38.1968 43.6867 38.1573 43.702 38.1536 43.6859C38.1431 43.6408 38.1533 43.5844 38.1663 43.5403C38.1713 43.5243 38.2055 43.5357 38.2092 43.5345C38.27 43.5155 38.1876 43.5037 38.1829 43.4974C38.1546 43.4582 38.193 43.428 38.1829 43.3919C38.1795 43.3823 38.1404 43.389 38.137 43.387C38.1045 43.3671 38.1717 43.3815 38.1809 43.3695C38.2028 43.3329 38.2006 43.2912 38.1956 43.2542C38.193 43.2414 38.1486 43.256 38.1467 43.2445C38.1389 43.1723 38.1432 43.0971 38.1682 43.0267C38.173 43.0134 38.2081 43.0216 38.2161 43.0189C38.2716 42.9999 38.1964 42.9717 38.1887 42.9652C38.1556 42.9359 38.1857 42.9245 38.1799 42.8987C38.1513 42.7728 38.1722 42.6172 38.1848 42.4984C38.2011 42.3434 38.2344 42.2232 38.2258 42.0755C38.2253 42.0661 38.179 42.0748 38.178 42.0667C38.1669 41.9624 38.1845 41.8597 38.1711 41.7552C38.1701 41.7466 38.1264 41.7583 38.1233 41.7445C38.1167 41.7162 38.119 41.6802 38.1331 41.6517C38.1404 41.6385 38.1778 41.6568 38.1838 41.6429C38.198 41.6102 38.2007 41.5749 38.1936 41.5413C38.1905 41.5271 38.1453 41.5482 38.1448 41.5296C38.1403 41.4031 38.1324 41.2785 38.1907 41.1507C38.1953 41.142 38.2863 41.1341 38.2688 41.1155C38.2435 41.1142 38.2138 41.1142 38.1868 41.1136C38.1722 40.9294 38.2033 40.7466 38.2082 40.5618C38.2061 40.5553 38.1607 40.5675 38.1604 40.553C38.1611 40.4658 38.1474 40.3806 38.1956 40.2913C38.2003 40.2825 38.2856 40.2872 38.2727 40.2611C38.2703 40.2561 38.2589 40.2165 38.2405 40.2064C38.2352 40.2056 38.1986 40.2117 38.1975 40.1995C38.1915 40.126 38.2006 40.0493 38.2249 39.9759C38.2288 39.9642 38.2692 39.9757 38.2737 39.9681C38.2962 39.9082 38.2645 39.8427 38.303 39.7855C38.3289 39.7471 38.4026 39.7609 38.4749 39.7405C38.4847 39.7372 38.487 39.7144 38.5286 39.7132C38.6342 39.7101 38.75 39.7208 38.8625 39.7161C38.8865 39.715 38.8607 39.6837 38.9192 39.7025ZM38.5227 50.2152C38.4944 50.2253 38.5272 50.2538 38.5627 50.2415C38.5914 50.2315 38.5584 50.2026 38.5227 50.2152ZM38.3801 49.6448C38.3305 49.6642 38.4417 49.6794 38.4622 49.6712C38.5281 49.6436 38.4311 49.6254 38.3801 49.6448ZM38.6204 47.0872C38.5729 47.0781 38.5691 47.1119 38.6184 47.1048C38.6203 47.1044 38.6218 47.0892 38.6204 47.0872ZM38.5901 46.0032C38.5495 46.0041 38.5614 46.0205 38.5989 46.015C38.6008 46.013 38.6016 46.003 38.5901 46.0032ZM38.6956 45.2591C38.618 45.2386 38.6093 45.3183 38.6907 45.3011C38.6948 45.3002 38.6992 45.2611 38.6956 45.2591ZM38.4973 39.8177C38.4498 39.8086 38.446 39.8425 38.4954 39.8353C38.4972 39.834 38.4988 39.8195 38.4973 39.8177Z" fill="#191919"/>
<path d="M18.5602 50.5259C18.6701 50.513 18.814 50.5273 18.9235 50.5464C18.9577 50.5523 18.941 50.5781 18.9645 50.5835C19.0109 50.5938 19.0544 50.581 19.1002 50.5933C19.1151 50.5976 19.0966 50.6391 19.1119 50.6431C19.1993 50.6616 19.2823 50.6507 19.3707 50.6597C19.8063 50.7037 20.2345 50.7197 20.6754 50.7388C20.8208 50.745 20.9979 50.7827 21.1481 50.7661C21.1656 50.7641 21.1555 50.7272 21.1588 50.7241C21.2108 50.6781 21.194 50.7523 21.2281 50.7622C21.3637 50.8012 21.5147 50.8047 21.6451 50.7905C21.7 50.7841 21.645 50.7115 21.7008 50.7524C21.7039 50.7566 21.6908 50.7943 21.7057 50.7983C21.7402 50.8077 21.8059 50.8011 21.8326 50.8042C21.8838 50.8103 21.8925 50.8096 21.941 50.8101C22.0077 50.811 22.0873 50.8306 22.1588 50.8218C22.1741 50.8198 22.154 50.7798 22.1783 50.773C22.2027 50.7662 22.2669 50.7694 22.2887 50.7788C22.3103 50.7882 22.3016 50.8192 22.3053 50.8267C22.337 50.8877 22.4119 50.8034 22.4215 50.8013C22.5963 50.7659 22.7466 50.8141 22.9108 50.814C23.0352 50.8137 23.1683 50.7982 23.2867 50.8003C23.4281 50.803 23.5488 50.8245 23.6861 50.8208C23.6998 50.8195 23.6835 50.7737 23.7008 50.773C23.8889 50.7675 24.076 50.7724 24.2633 50.8042C24.2815 50.8077 24.2582 50.8477 24.276 50.854C24.3909 50.888 24.573 50.9699 24.6412 50.7896C24.719 50.7966 24.8138 50.804 24.8834 50.8403C24.9282 50.8637 24.8849 50.9094 24.9401 50.8901C24.9521 50.8855 24.9362 50.8457 24.9547 50.8423C25.0332 50.8279 25.1193 50.8412 25.1969 50.8208C25.2122 50.8164 25.2084 50.782 25.2125 50.7749C25.2501 50.7233 25.3131 50.8078 25.3268 50.814C25.4307 50.8601 25.5064 50.8422 25.6031 50.8433C25.6256 50.8435 25.5991 50.7959 25.6207 50.7944C25.7328 50.7876 25.8489 50.792 25.9586 50.813C25.9828 50.8178 25.9614 50.8578 25.9723 50.8628C26.0237 50.8815 26.0354 50.8056 26.0846 50.8218C26.095 50.8252 26.0895 50.86 26.0914 50.8638C26.1211 50.9232 26.1473 50.8383 26.1549 50.8364C26.2513 50.8113 26.3136 50.8997 26.4069 50.8872C26.4169 50.8846 26.393 50.8424 26.4235 50.8403C26.6326 50.8282 26.8541 50.8395 27.0611 50.8745C27.0934 50.8799 27.0708 50.9134 27.0729 50.9175C27.1054 50.9798 27.1267 50.8985 27.1373 50.8931C27.2202 50.87 27.2978 50.9407 27.3541 50.8394C27.7049 50.8745 28.0541 50.818 28.402 50.9087C28.4064 50.9097 28.399 50.9517 28.4078 50.9536C28.5137 50.9769 28.4938 50.9121 28.5641 50.8325C28.5818 50.8127 28.6355 50.9085 28.6403 50.9155C28.6571 50.9412 28.6402 51.0015 28.6451 51.0083C28.6933 51.0478 28.6857 50.8424 28.7506 50.8423C28.7518 50.8454 28.7444 50.8807 28.7496 50.8843C28.7664 50.8958 28.783 50.8812 28.7994 50.894C28.8373 50.9242 28.8511 51.0241 28.9088 50.9663C28.9161 50.9587 28.9055 50.8417 28.9635 50.8472C28.9872 50.8494 29.0878 50.8476 29.1168 50.855C29.1455 50.8626 29.1265 50.9002 29.1285 50.9019C29.2054 50.9516 29.1758 50.9727 29.2145 51.0464C29.253 51.1195 29.2427 50.9439 29.2584 50.9243C29.2743 50.9054 29.3301 50.946 29.3444 50.9605C29.3582 50.9748 29.3418 50.9992 29.3541 51.0073C29.4354 51.0593 29.3897 50.9199 29.4166 50.8921C29.4803 50.8262 29.5302 50.9565 29.5885 50.9692C29.6036 50.972 29.5912 50.9427 29.6051 50.9399C29.6606 50.9294 29.6942 50.9702 29.7574 50.9331C29.7678 50.9271 29.8191 50.8485 29.8522 50.9058C29.8568 50.914 29.8434 50.9462 29.8668 50.9536C29.9022 50.9645 29.9665 50.9723 30.0045 50.9614C30.0323 50.9532 30.0005 50.9 30.0358 50.9165C30.0506 50.9242 30.0223 50.9551 30.0514 50.9663C30.0806 50.9776 30.1553 50.9762 30.1842 50.9751C30.2117 50.974 30.1987 50.9363 30.1998 50.9312C30.2135 50.9158 30.2667 50.8966 30.2731 50.896C30.517 50.8911 30.7426 50.9586 30.9801 50.936C30.9983 50.9339 30.9861 50.8918 30.9889 50.8911C31.0526 50.8733 31.0023 50.9867 31.0465 51.0249C31.0401 50.9383 31.067 50.9543 31.1119 50.9448C31.1334 50.9402 31.1219 50.9067 31.1236 50.9028C31.1558 50.8519 31.1784 50.9177 31.1842 50.9312C31.2054 50.9803 31.2283 50.9225 31.2428 50.9556C31.2569 50.9884 31.2242 51.0363 31.2672 51.0356C31.2788 51.0043 31.2473 50.9237 31.2799 50.9106C31.4033 50.8611 31.6336 50.9245 31.733 50.9312C31.8321 50.9378 31.8647 50.9326 31.9225 50.9439C32.0262 50.9639 31.9887 50.904 32.0533 50.8765C32.118 50.8494 32.086 50.997 32.0953 51.0288C32.1044 51.0599 32.1153 51.0274 32.1266 51.0444C32.1379 51.0618 32.1133 51.0836 32.1393 51.0903C32.166 51.0969 32.239 51.0406 32.2486 51.0073C32.2687 50.9369 32.2365 50.8632 32.3072 50.8892C32.3101 50.8929 32.2985 50.9289 32.3131 50.9331C32.4368 50.963 32.5655 50.9653 32.6891 50.9917C32.706 50.9954 32.6912 51.0385 32.7008 51.0415C32.8038 51.0692 32.7674 50.9956 32.8238 50.9146C32.8112 51.0224 32.8423 51.0887 32.9205 51.0894C32.9675 51.0898 32.9595 51.0425 32.9899 51.0093C32.9991 50.9996 33.0327 51.0314 33.0387 51.0093C33.0583 50.9371 33.0271 50.8564 33.107 50.8882C33.1106 50.8897 33.0997 50.9297 33.1119 50.9321C33.1909 50.9478 33.2004 50.872 33.2858 50.8628C33.3527 50.8556 33.4722 50.9022 33.5485 50.9097C33.547 51.0304 33.6189 51.0029 33.6481 50.9194C33.6974 50.9228 33.7508 50.9177 33.7985 50.9292C33.8148 50.9332 33.8042 50.9684 33.8063 50.9722C33.8379 51.0314 33.859 50.9506 33.8697 50.9468C33.9854 50.9158 34.0797 50.9775 34.1901 50.9175C34.194 50.9153 34.2006 50.8316 34.2301 50.8931C34.2303 50.8987 34.1969 50.9351 34.2477 50.938C34.2995 50.941 34.3973 50.9863 34.4694 50.9478C34.4868 50.9384 34.5316 50.8699 34.567 50.9233C34.5714 50.931 34.5662 50.955 34.5729 50.9683C34.5948 51.0106 34.6076 50.9257 34.6334 50.9976C34.6593 51.0699 34.713 51.1246 34.7858 51.0747C34.7881 51.0733 34.805 51.0059 34.8278 51.0064C34.8643 51.0081 34.9166 51.0224 34.9547 51.022C34.9728 51.0215 34.9613 50.9798 34.9645 50.979C35.0872 50.9556 35.1748 50.9931 35.3063 51.0093C35.3306 51.0118 35.3994 50.9555 35.4459 51.0005C35.497 51.05 35.4448 51.2551 35.5621 51.2065C35.6096 51.1869 35.6701 50.9259 35.7555 51.061C35.9209 51.0276 36.074 51.0969 36.2399 51.0493C36.2473 51.0472 36.2712 50.9748 36.2887 50.9751C36.3148 50.9767 36.3297 51.0109 36.3483 51.0132C36.4261 51.0233 36.4978 50.994 36.5729 50.9985C36.6008 51.0005 36.5913 51.0354 36.6246 51.0376C36.6586 51.0395 36.682 50.9928 36.7281 51.0151C36.7628 51.0323 36.7974 51.1268 36.8434 51.1382C36.8451 51.045 36.8771 51.0465 36.9332 51.022C36.944 51.0172 36.9333 50.9853 36.9381 50.981C36.959 50.9642 36.9778 50.9904 36.9977 50.9722C37.0025 50.9678 37.0035 50.9365 37.0074 50.9312C37.0409 50.8843 37.0954 50.9555 37.1051 50.9683C37.1413 51.0155 37.1585 50.9746 37.1861 50.9927C37.214 51.0114 37.1732 51.035 37.2057 51.0464C37.2729 51.0697 37.3591 51.0645 37.4274 51.0659C37.454 51.0663 37.4373 51.0258 37.4401 51.023C37.4966 51.0121 37.5542 51.057 37.5856 50.9722C37.6247 51.1915 37.6192 50.9519 37.6998 50.9956C37.7062 50.9992 37.7145 51.1024 37.6901 51.1177C37.6657 51.1328 37.6291 51.1011 37.5953 51.1245C37.5874 51.1301 37.5415 51.2259 37.5348 51.2329C37.4862 51.2784 37.4789 51.1273 37.4762 51.1157C37.4468 51.0242 37.3907 51.1272 37.3756 51.1353C37.308 51.1684 37.2505 51.1469 37.194 51.1704C37.1569 51.1857 37.1527 51.2878 37.1236 51.2847C37.0273 51.2741 36.9939 51.1327 36.9029 51.2554C36.8834 51.2816 36.9025 51.3924 36.8326 51.3052C36.8282 51.2997 36.7767 51.2203 36.7467 51.27C36.7429 51.2764 36.7428 51.3091 36.7379 51.312C36.7047 51.3296 36.6823 51.3038 36.6461 51.3159C36.6098 51.3283 36.5655 51.3464 36.524 51.3355C36.4993 51.3283 36.4677 51.2695 36.4557 51.2544C36.422 51.212 36.3858 51.281 36.3649 51.23C36.3438 51.1783 36.3849 51.0994 36.3297 51.0659C36.3277 51.15 36.3232 51.2363 36.3199 51.3208C36.1988 51.3178 36.0792 51.2907 35.9576 51.2944C35.9426 51.295 35.9579 51.3403 35.942 51.3423C35.874 51.3495 35.8143 51.3169 35.7438 51.3296C35.6892 51.3397 35.629 51.3877 35.5719 51.3999C35.537 51.3039 35.4519 51.3363 35.3903 51.3276C35.3686 51.3246 35.3695 51.2989 35.3541 51.2905C35.2966 51.2599 35.3238 51.3442 35.3082 51.3579C35.24 51.415 35.2333 51.2223 35.1529 51.2271C35.147 51.2311 35.0965 51.3302 35.0895 51.3364C35.0447 51.3771 35.0817 51.3019 35.0543 51.2935C35.0023 51.2796 34.9658 51.2548 34.9049 51.2847C34.8871 51.2936 34.8438 51.3576 34.8092 51.3081C34.8047 51.3014 34.807 51.2681 34.8033 51.2661C34.7372 51.2333 34.7357 51.3395 34.6979 51.3755C34.6601 51.4111 34.6016 51.3383 34.5895 51.3169C34.5583 51.2621 34.6132 51.293 34.6149 51.2876C34.6346 51.2239 34.5927 51.2343 34.5602 51.229C34.5554 51.1249 34.5095 51.1312 34.526 51.2241C34.5279 51.2343 34.5536 51.2242 34.5602 51.229C34.5316 51.3314 34.4807 51.3451 34.4254 51.2495C34.3995 51.2046 34.424 51.1522 34.3453 51.1714C34.3099 51.1803 34.3231 51.2514 34.2916 51.271C34.2197 51.3155 34.1265 51.2488 34.0524 51.2593C34.0254 51.2631 34.0512 51.3032 34.0328 51.3071C33.9841 51.3176 33.9411 51.2882 33.8922 51.3032C33.8878 51.3046 33.8984 51.3454 33.8834 51.3462C33.7677 51.351 33.6663 51.3245 33.5455 51.3237C33.4871 51.3235 33.3832 51.3459 33.3229 51.3413C33.2181 51.3336 33.0892 51.2741 32.9996 51.2886C32.9415 51.2979 32.9538 51.3386 32.9293 51.3667C32.8811 51.421 32.7956 51.3245 32.7838 51.3091C32.7835 51.3086 32.8332 51.2988 32.8072 51.2778C32.7917 51.2338 32.7844 51.3087 32.7838 51.3091C32.7763 51.2994 32.6761 51.2896 32.6559 51.2974C32.645 51.3017 32.6508 51.3408 32.6451 51.3423C32.5111 51.3772 32.3768 51.3878 32.2408 51.3696C32.2384 51.3688 32.2416 51.325 32.236 51.3237C32.1573 51.3045 32.1065 51.3575 32.0416 51.3892C31.9769 51.4207 31.9257 51.4101 31.8873 51.3355C31.8383 51.3449 31.7676 51.3116 31.7272 51.2915C31.6867 51.2714 31.6809 51.3562 31.6774 51.3579C31.5664 51.4116 31.5023 51.3636 31.3873 51.356C31.3325 51.3522 31.223 51.3642 31.1637 51.3735C31.117 51.3808 31.0886 51.3608 31.0455 51.3735C31.0399 51.3757 31.0453 51.4131 31.0436 51.4146C30.9957 51.4594 31.0191 51.3681 31.0094 51.3511C30.9733 51.291 30.9509 51.2594 30.8893 51.2876C30.875 51.2941 30.8332 51.4273 30.8072 51.4351C30.7736 51.4449 30.7859 51.3971 30.7506 51.4087C30.7479 51.4116 30.7472 51.4392 30.7262 51.438C30.6251 51.4323 30.5149 51.4145 30.4098 51.4175C30.3954 51.4178 30.4138 51.465 30.3932 51.4663C30.2959 51.4718 30.1892 51.4695 30.0944 51.4478C30.071 51.4422 30.0848 51.4096 30.0797 51.3999C30.0487 51.3417 30.0053 51.4258 29.9977 51.4282C29.8239 51.4693 29.6905 51.3914 29.5133 51.4282C29.5032 51.431 29.4291 51.5221 29.3961 51.4439C29.3933 51.4373 29.3613 51.3592 29.3326 51.4136C29.3319 51.4187 29.3498 51.4577 29.3151 51.4536C29.2794 51.4497 29.2222 51.4772 29.1735 51.4321C29.158 51.4178 29.1211 51.3371 29.0748 51.4009C29.0718 51.4053 29.0007 51.55 28.9752 51.4507C28.9711 51.4343 28.9754 51.3289 28.9205 51.3823C28.91 51.3928 28.9288 51.4165 28.901 51.4312C28.8584 51.4538 28.802 51.4262 28.7496 51.4731C28.74 51.4826 28.7014 51.5521 28.6705 51.4985C28.6657 51.4901 28.6749 51.4549 28.6588 51.4507C28.5805 51.4318 28.498 51.4555 28.4186 51.4312C28.3907 51.4224 28.4049 51.3653 28.3756 51.3501C28.3462 51.3349 28.2871 51.3202 28.2565 51.3462C28.2259 51.3723 28.2594 51.4629 28.2135 51.4702C28.0136 51.5017 27.8155 51.4487 27.6158 51.4409C27.5862 51.4398 27.6105 51.4725 27.567 51.4731C27.4063 51.4756 27.1287 51.5057 26.9889 51.437C26.8771 51.3818 27.017 51.3394 26.9322 51.3169C26.8917 51.3064 26.8475 51.408 26.8365 51.4146C26.7392 51.4483 26.6712 51.4022 26.5836 51.4165C26.5656 51.4195 26.5832 51.4621 26.568 51.4644C26.5154 51.4718 26.46 51.4521 26.4098 51.4556C26.3873 51.4572 26.3914 51.4902 26.3707 51.4878C26.3212 51.4822 26.2773 51.4684 26.2291 51.438C26.2247 51.4352 26.2541 51.3946 26.2174 51.3931C26.1581 51.3907 26.0845 51.3602 26.0162 51.3911C25.996 51.4005 25.9943 51.4757 25.9508 51.4243C25.9417 51.4136 25.9537 51.3235 25.9029 51.4009C25.8944 51.4138 25.8091 51.518 25.7672 51.4507C25.7561 51.4327 25.728 51.3602 25.7037 51.3716C25.7004 51.3734 25.7132 51.4136 25.693 51.4175C25.6219 51.4305 25.5473 51.4264 25.4742 51.439C25.4549 51.4425 25.4837 51.483 25.4547 51.4868C25.3746 51.4973 25.2742 51.4871 25.1959 51.4741C25.1676 51.469 25.1873 51.4349 25.1852 51.4312C25.1517 51.371 25.132 51.4516 25.1207 51.4575C25.051 51.4862 24.9975 51.4474 24.9332 51.4575C24.9155 51.4602 24.928 51.4999 24.9244 51.5034C24.8884 51.5368 24.9146 51.4679 24.8922 51.4595C24.8273 51.4376 24.7547 51.4398 24.6891 51.4448C24.6651 51.4467 24.6917 51.4921 24.6705 51.4937C24.5424 51.5015 24.4089 51.4972 24.2838 51.4722C24.2603 51.4674 24.275 51.4323 24.2701 51.4243C24.2365 51.3689 24.1871 51.4438 24.1754 51.4517C24.1235 51.4848 24.103 51.4547 24.0572 51.4605C23.8336 51.4891 23.5574 51.4682 23.3463 51.4556C23.0712 51.4393 22.8577 51.4059 22.5953 51.4146C22.5786 51.4151 22.5951 51.4614 22.5807 51.4624C22.3951 51.4736 22.212 51.4558 22.026 51.4692C22.0116 51.4711 22.0327 51.514 22.0084 51.5171C21.9583 51.5238 21.895 51.5213 21.8444 51.5073C21.8196 51.5006 21.8524 51.4627 21.8278 51.4565C21.7697 51.4424 21.7068 51.4397 21.6471 51.4468C21.6225 51.4503 21.6601 51.4949 21.6276 51.4956C21.4028 51.5001 21.1818 51.508 20.9547 51.4497C20.9391 51.4457 20.9253 51.354 20.8922 51.3716C20.8897 51.3969 20.8894 51.4266 20.8883 51.4536C20.5613 51.4682 20.2377 51.4371 19.9098 51.4321C19.8959 51.4319 19.919 51.4801 19.8922 51.48C19.7373 51.4793 19.5868 51.493 19.4283 51.4448C19.4126 51.44 19.4209 51.3548 19.3746 51.3677C19.3664 51.37 19.296 51.3814 19.2779 51.3999C19.2766 51.4052 19.2878 51.4417 19.2662 51.4429C19.1354 51.4489 18.9984 51.4399 18.8678 51.4155C18.8468 51.4115 18.8689 51.3701 18.8541 51.3667C18.7477 51.3442 18.6316 51.376 18.5299 51.3374C18.4621 51.3114 18.4869 51.2377 18.4508 51.1655C18.4449 51.1557 18.4041 51.1533 18.402 51.1118C18.3964 51.0062 18.4162 50.8904 18.4078 50.7778C18.4058 50.7538 18.3501 50.7797 18.3834 50.7212C18.3863 50.7171 18.4258 50.6978 18.4361 50.6782C18.4431 50.6645 18.431 50.6218 18.4449 50.604C18.4592 50.5864 18.475 50.6216 18.4986 50.6011C18.5224 50.5801 18.5128 50.5316 18.5602 50.5259ZM36.0797 51.1782C36.0307 51.1123 35.9973 51.2093 36.0319 51.2603C36.0663 51.3105 36.0944 51.1985 36.0797 51.1782ZM18.5875 51.1431C18.5714 51.1906 18.6317 51.1944 18.6188 51.145C18.6165 51.1432 18.5903 51.1415 18.5875 51.1431ZM37.0924 51.0776C37.0745 51.049 37.0233 51.082 37.0455 51.1177C37.0636 51.1456 37.1141 51.1131 37.0924 51.0776ZM29.568 51.0503C29.5695 51.0909 29.5993 51.079 29.5895 51.0415C29.5869 51.0395 29.5676 51.0384 29.568 51.0503ZM37.8834 50.9116C37.9084 50.9152 37.8302 50.9671 37.8619 50.9829C37.92 51.0115 37.9589 50.9016 38.0182 50.9605C38.0289 50.9712 37.9563 51.0753 37.9488 51.0747C37.8225 51.0664 37.746 50.8921 37.8834 50.9116ZM31.4918 51.02C31.4755 51.0675 31.5358 51.0714 31.5231 51.022C31.5212 51.0201 31.4929 51.0182 31.4918 51.02ZM28.2477 50.9448C28.2113 51.0224 28.3525 51.031 28.3219 50.9497C28.3202 50.9455 28.251 50.9411 28.2477 50.9448Z" fill="#191919"/>
<path d="M17.8042 50.6429C17.8122 50.5794 17.9866 50.5408 17.9673 50.6097C17.9637 50.6223 17.9119 50.5833 17.896 50.599C17.8673 50.6281 17.9764 50.6474 17.9184 50.6771C17.908 50.6824 17.8092 50.6483 17.8042 50.6429ZM18.1577 40.8168C18.1616 40.8179 18.1809 40.8389 18.2007 40.8441C18.2144 40.8476 18.2571 40.841 18.2749 40.848C18.2925 40.8552 18.2571 40.8634 18.2778 40.8754C18.2988 40.8871 18.3471 40.8821 18.353 40.9056C18.366 40.9608 18.3516 41.0332 18.3325 41.0883C18.3266 41.1053 18.3011 41.0975 18.2954 41.1088C18.2851 41.132 18.2978 41.1541 18.2856 41.1771C18.2815 41.1847 18.24 41.1754 18.2358 41.183C18.2173 41.2268 18.2281 41.2685 18.2192 41.3129C18.1752 41.5316 18.1592 41.7468 18.1401 41.9681C18.1339 42.0411 18.0962 42.1301 18.1128 42.2054C18.1148 42.2143 18.1517 42.2096 18.1548 42.2113C18.2001 42.2371 18.127 42.2287 18.1167 42.2455C18.0777 42.3136 18.0741 42.3899 18.0884 42.4554C18.0951 42.4827 18.1673 42.4549 18.1264 42.4828C18.1237 42.4847 18.0847 42.4781 18.0806 42.4857C18.0712 42.5031 18.0778 42.5358 18.0747 42.5492C18.0685 42.5751 18.0693 42.5794 18.0688 42.6039C18.0679 42.6374 18.0482 42.6773 18.0571 42.7133C18.0591 42.7209 18.099 42.7109 18.1059 42.723C18.1128 42.7353 18.1095 42.7678 18.1001 42.7787C18.0906 42.7893 18.0599 42.7848 18.0522 42.7865C17.9912 42.8024 18.0755 42.8403 18.0776 42.8451C18.113 42.9327 18.065 43.0079 18.0649 43.0902C18.0651 43.1528 18.0807 43.2201 18.0786 43.2797C18.0758 43.3506 18.0544 43.411 18.0581 43.4799C18.0584 43.4871 18.1054 43.4788 18.1059 43.4877C18.1114 43.5821 18.1065 43.6758 18.0747 43.7699C18.0715 43.7793 18.0309 43.7675 18.0249 43.7767C17.9909 43.8344 17.909 43.9261 18.0893 43.9603C18.0823 43.9993 18.0747 44.0466 18.0386 44.0814C18.0152 44.1039 17.9698 44.0823 17.9888 44.1097C17.993 44.116 18.0332 44.1082 18.0366 44.1176C18.0508 44.1568 18.0379 44.1998 18.0581 44.2386C18.0622 44.2464 18.0966 44.2444 18.104 44.2465C18.1552 44.2652 18.0723 44.2969 18.0649 44.3041C18.0187 44.3562 18.0367 44.3942 18.0356 44.4427C18.0353 44.454 18.0826 44.4409 18.0845 44.4515C18.0913 44.5078 18.0869 44.5664 18.0659 44.6215C18.0611 44.6336 18.0211 44.6228 18.0161 44.6283C17.9973 44.6541 18.0736 44.6601 18.0571 44.6849C18.0534 44.69 18.0189 44.6869 18.0151 44.6879C17.9555 44.7028 18.0406 44.7163 18.0425 44.7201C18.0673 44.7683 17.9795 44.7994 17.9917 44.8461C17.9933 44.8517 18.0364 44.8394 18.0386 44.8549C18.0507 44.9599 18.0394 45.0712 18.0044 45.1752C17.999 45.1913 17.9655 45.18 17.9614 45.181C17.8997 45.1972 17.979 45.2079 17.9858 45.2133C18.0089 45.2549 17.9382 45.2944 18.0395 45.3226C18.0045 45.4987 18.0609 45.6744 17.9702 45.849C17.9667 45.8508 17.9278 45.8469 17.9253 45.851C17.9018 45.9043 17.9668 45.8948 18.0464 45.9301C18.0664 45.9389 17.9704 45.9657 17.9634 45.9681C17.9376 45.9767 17.8769 45.9685 17.8706 45.9711C17.8311 45.9952 18.0365 45.9912 18.0366 46.0238C18.0332 46.0243 17.9982 46.0202 17.9946 46.0228C17.9829 46.0313 17.9979 46.0399 17.9848 46.0482C17.9546 46.0672 17.855 46.074 17.9126 46.1029C17.9201 46.1066 18.0372 46.1011 18.0317 46.1302C18.0294 46.1419 18.0314 46.1928 18.0239 46.2074C18.0163 46.2218 17.9787 46.2122 17.977 46.2133C17.9273 46.2519 17.9062 46.2368 17.8325 46.2562C17.7596 46.2756 17.935 46.2708 17.9546 46.2787C17.9731 46.2868 17.9328 46.3146 17.9184 46.3217C17.9041 46.3286 17.8797 46.3203 17.8716 46.3265C17.8197 46.3673 17.9589 46.3443 17.9868 46.3578C18.0525 46.3897 17.9229 46.4146 17.9097 46.4437C17.9062 46.4516 17.9361 46.4455 17.9389 46.4525C17.9495 46.4803 17.9092 46.4971 17.9458 46.5287C17.9518 46.5339 18.0301 46.5599 17.9731 46.5765C17.9649 46.5789 17.9325 46.5725 17.9253 46.5844C17.9145 46.602 17.907 46.6336 17.9175 46.6527C17.9255 46.6668 17.9788 46.6507 17.9624 46.6683C17.955 46.6762 17.9239 46.6623 17.9126 46.6771C17.9015 46.692 17.9027 46.7292 17.9038 46.7435C17.9049 46.7573 17.9425 46.7508 17.9477 46.7513C17.9634 46.7583 17.9829 46.786 17.9829 46.7885C17.9877 46.9109 17.9203 47.0237 17.9429 47.1429C17.9446 47.1523 17.9871 47.1464 17.9878 47.1478C18.0049 47.1795 17.8919 47.1548 17.854 47.1771C17.9405 47.1739 17.9246 47.1868 17.9341 47.2094C17.9387 47.2201 17.9721 47.2143 17.9761 47.2152C18.027 47.2313 17.9612 47.2426 17.9477 47.2455C17.8984 47.2562 17.9564 47.2675 17.9233 47.2748C17.8905 47.2819 17.8426 47.2659 17.8432 47.2875C17.8745 47.2933 17.955 47.2771 17.9682 47.2933C18.0178 47.3552 17.9547 47.4707 17.9477 47.5209C17.9411 47.5706 17.9462 47.5876 17.935 47.6166C17.9153 47.6683 17.9749 47.6497 18.0024 47.682C18.0299 47.7146 17.8819 47.6988 17.8501 47.7035C17.8193 47.708 17.8512 47.7135 17.8345 47.7191C17.817 47.7248 17.7951 47.7125 17.7886 47.726C17.7831 47.7396 17.8386 47.7759 17.8716 47.7806C17.9419 47.7907 18.0153 47.7737 17.9897 47.809C17.9882 47.811 17.9497 47.805 17.9458 47.8129C17.9159 47.875 17.9136 47.9393 17.8872 48.0013C17.8835 48.0099 17.84 48.0022 17.8374 48.0072C17.8097 48.0589 17.8833 48.0404 17.9643 48.0687C17.8565 48.0624 17.7902 48.0783 17.7895 48.1176C17.7891 48.1412 17.8364 48.1374 17.8696 48.1527C17.8788 48.1575 17.8476 48.1741 17.8696 48.1771C17.9418 48.187 18.0226 48.1711 17.9907 48.2113C17.9892 48.2131 17.9502 48.2075 17.9468 48.2133C17.931 48.2529 18.0069 48.2583 18.0161 48.3011C18.0232 48.3348 17.9767 48.3948 17.9692 48.433H17.9663C18.0141 48.4495 18.0194 48.4696 17.9595 48.4828C17.9561 48.5075 17.961 48.5341 17.9497 48.558C17.9458 48.5661 17.9112 48.561 17.9067 48.5619C17.8473 48.5779 17.9288 48.5887 17.9321 48.5941C17.9631 48.6522 17.9012 48.6998 17.9614 48.7552C17.9647 48.7572 18.0469 48.761 17.9858 48.7758C17.9802 48.7758 17.9438 48.7591 17.9409 48.7845C17.9375 48.8107 17.8924 48.8599 17.9311 48.8959C17.9405 48.9046 18.009 48.9269 17.9556 48.9447C17.9478 48.9469 17.9238 48.9443 17.9106 48.9476C17.8688 48.9586 17.953 48.965 17.8813 48.9779C17.8091 48.9909 17.7546 49.0176 17.8042 49.0541C17.8056 49.0552 17.8736 49.0641 17.8725 49.0756C17.8708 49.0939 17.8565 49.1199 17.8569 49.139C17.8572 49.1482 17.8991 49.1423 17.8999 49.1439C17.9234 49.2056 17.8858 49.2498 17.8696 49.3158C17.8675 49.3282 17.9232 49.3629 17.8784 49.3861C17.8285 49.4116 17.6234 49.3857 17.6723 49.4447C17.6931 49.4685 17.9528 49.4986 17.8179 49.5414C17.8512 49.6244 17.7821 49.7013 17.8296 49.7845C17.8317 49.7883 17.9037 49.8002 17.9038 49.809C17.9022 49.822 17.8679 49.8299 17.8657 49.8392C17.8558 49.8782 17.8849 49.9139 17.8804 49.9515C17.8787 49.9658 17.8433 49.9608 17.8413 49.9779C17.8394 49.995 17.8861 50.0065 17.8638 50.0297C17.8468 50.0471 17.7526 50.0643 17.7407 50.0873C17.8342 50.0882 17.8322 50.1048 17.8569 50.1332C17.862 50.1384 17.8932 50.1329 17.8979 50.1351C17.9147 50.1456 17.8885 50.1555 17.9067 50.1654C17.9123 50.1676 17.9417 50.1675 17.9477 50.1693C17.9947 50.1861 17.9231 50.2144 17.9106 50.2191C17.8632 50.2374 17.9048 50.2461 17.8862 50.2601C17.8676 50.2741 17.8439 50.253 17.8325 50.2689C17.809 50.3028 17.8144 50.3468 17.813 50.3812C17.8129 50.3944 17.8532 50.3857 17.8559 50.3871C17.8667 50.4155 17.8219 50.4446 17.9067 50.4603C17.6873 50.48 17.9272 50.4774 17.8833 50.5179C17.8757 50.5211 17.7767 50.5249 17.7612 50.5131C17.746 50.5008 17.7781 50.4822 17.7544 50.4652C17.7485 50.4611 17.6532 50.4384 17.646 50.4349C17.6004 50.4105 17.7516 50.407 17.7632 50.4056C17.8544 50.3909 17.7522 50.3625 17.7436 50.3549C17.7105 50.3209 17.7322 50.2915 17.7085 50.2631C17.6928 50.2448 17.593 50.2431 17.5942 50.2289C17.6045 50.1804 17.7464 50.1633 17.6235 50.1176C17.5972 50.1078 17.4867 50.1174 17.5737 50.0824C17.5792 50.0802 17.6591 50.0535 17.6089 50.0385C17.6025 50.0366 17.5696 50.037 17.5669 50.0345C17.5496 50.0179 17.575 50.0067 17.563 49.9886C17.5506 49.9704 17.5325 49.9479 17.5434 49.9271C17.5508 49.9147 17.6093 49.899 17.6245 49.8929C17.667 49.876 17.5978 49.8576 17.6489 49.847C17.7007 49.8365 17.7795 49.8572 17.813 49.8295C17.7289 49.8284 17.6426 49.8262 17.5581 49.8246C17.561 49.7638 17.5881 49.7039 17.5845 49.6429C17.5839 49.6354 17.539 49.6429 17.5366 49.6351C17.5294 49.601 17.5618 49.5709 17.5493 49.5355C17.5392 49.508 17.491 49.4773 17.479 49.4486C17.575 49.4311 17.5426 49.3887 17.5513 49.3578C17.5543 49.3471 17.5797 49.3476 17.5884 49.3402C17.6194 49.3111 17.5344 49.3248 17.521 49.3168C17.4639 49.2825 17.6566 49.279 17.6518 49.2386C17.649 49.2359 17.5491 49.211 17.5425 49.2074C17.501 49.1846 17.5774 49.2029 17.5854 49.1888C17.5993 49.1627 17.6243 49.1443 17.5942 49.1136C17.5848 49.1046 17.5216 49.0831 17.5708 49.0658C17.5774 49.0635 17.6108 49.0647 17.6128 49.0629C17.6458 49.0296 17.5395 49.0291 17.5034 49.0101C17.468 48.9912 17.5405 48.9616 17.562 48.9554C17.6168 48.9398 17.5859 48.9673 17.5913 48.9681C17.6552 48.9781 17.6445 48.9572 17.6499 48.9408C17.754 48.9384 17.7477 48.9159 17.6548 48.9242C17.6448 48.9251 17.6542 48.9373 17.6499 48.9408C17.5475 48.9264 17.534 48.9012 17.6294 48.8734C17.6742 48.8604 17.7266 48.8728 17.7075 48.8334C17.6989 48.8154 17.6275 48.8219 17.6079 48.806C17.5632 48.7699 17.6301 48.7232 17.6196 48.6859C17.6158 48.6724 17.5757 48.6854 17.5718 48.6761C17.5615 48.6518 17.5905 48.6303 17.5757 48.6058C17.5742 48.6036 17.5332 48.6086 17.5327 48.601C17.528 48.543 17.5543 48.4925 17.5552 48.432C17.5555 48.4027 17.5331 48.3501 17.5376 48.3197C17.5452 48.2672 17.6045 48.2025 17.5903 48.1576C17.581 48.1284 17.5403 48.1339 17.5122 48.1215C17.458 48.0973 17.5541 48.0553 17.5698 48.0492C17.5711 48.0513 17.5812 48.0732 17.6011 48.0609C17.6449 48.0531 17.5707 48.0495 17.5698 48.0492C17.5795 48.0454 17.5891 47.9952 17.5815 47.9847C17.5774 47.9795 17.5409 47.9821 17.5366 47.9799C17.5017 47.9125 17.491 47.8441 17.5093 47.7758C17.5104 47.7746 17.5539 47.7766 17.5552 47.7738C17.5746 47.7342 17.5215 47.7088 17.4897 47.6761C17.4582 47.6436 17.4688 47.6183 17.5434 47.599C17.534 47.5744 17.5673 47.5383 17.5874 47.5179C17.6066 47.4981 17.5255 47.4953 17.521 47.4935C17.4672 47.4377 17.5154 47.4049 17.5229 47.347C17.5265 47.3195 17.5146 47.2654 17.5054 47.2357C17.4979 47.2122 17.5179 47.1978 17.5054 47.1761C17.5037 47.1733 17.4678 47.1758 17.4643 47.1752C17.4191 47.151 17.5112 47.1626 17.5278 47.1576C17.5879 47.1395 17.6196 47.1281 17.5913 47.097C17.5812 47.0896 17.4515 47.0689 17.4438 47.056C17.4348 47.0395 17.4817 47.0453 17.4702 47.0277C17.4668 47.0264 17.44 47.0262 17.4409 47.016C17.4465 46.9652 17.4643 46.9096 17.4614 46.8568C17.4611 46.8496 17.4138 46.8585 17.4126 46.848C17.4071 46.7992 17.4093 46.7452 17.4311 46.6976C17.4372 46.6865 17.4694 46.6933 17.479 46.6908C17.5376 46.6752 17.4526 46.6535 17.4507 46.6498C17.4096 46.5625 17.4873 46.4955 17.4507 46.4066C17.4485 46.4018 17.3565 46.3647 17.435 46.348C17.4403 46.3469 17.5203 46.3303 17.4653 46.3158C17.4601 46.3155 17.4212 46.3244 17.4253 46.307C17.4292 46.2891 17.4018 46.2602 17.4468 46.2357C17.461 46.2279 17.5412 46.21 17.478 46.1869C17.4736 46.1854 17.3289 46.1489 17.4282 46.1361C17.4446 46.134 17.55 46.1363 17.4966 46.1088C17.4861 46.1035 17.4624 46.1129 17.4477 46.099C17.4251 46.0776 17.4527 46.0491 17.4057 46.0228C17.3957 46.0179 17.3275 45.9992 17.3804 45.9838C17.3889 45.9813 17.4243 45.9852 17.4282 45.9769C17.4469 45.9377 17.4234 45.8966 17.4477 45.8568C17.4563 45.8427 17.5135 45.8501 17.5288 45.8353C17.544 45.8206 17.5584 45.7912 17.5327 45.7758C17.5067 45.7603 17.4159 45.7764 17.4087 45.7533C17.3774 45.653 17.4302 45.5536 17.438 45.4535C17.4391 45.4387 17.4064 45.451 17.4057 45.4291C17.4033 45.3484 17.3734 45.2093 17.4419 45.139C17.4971 45.0829 17.5395 45.1527 17.562 45.1097C17.5714 45.0892 17.4683 45.067 17.4643 45.0619C17.4306 45.013 17.4767 44.9789 17.4624 44.9349C17.4583 44.9265 17.4166 44.9347 17.4145 44.9271C17.4074 44.9008 17.4268 44.8731 17.4233 44.848C17.4217 44.8368 17.389 44.8387 17.3911 44.8285C17.3967 44.8036 17.4105 44.7814 17.4409 44.7572C17.4437 44.755 17.4843 44.7698 17.4858 44.7513C17.4882 44.7215 17.519 44.6841 17.4878 44.6498C17.4781 44.6397 17.4038 44.6392 17.4546 44.6176C17.4653 44.613 17.5554 44.6186 17.478 44.5931C17.4648 44.5887 17.361 44.5467 17.4282 44.5258C17.446 44.5202 17.5188 44.5058 17.5073 44.4935C17.5044 44.4921 17.4659 44.4983 17.4614 44.4886C17.4483 44.4529 17.4525 44.415 17.4399 44.3783C17.4364 44.3686 17.3963 44.3827 17.3921 44.3685C17.3816 44.3283 17.3918 44.278 17.4048 44.2386C17.4096 44.2241 17.444 44.2338 17.4477 44.2328C17.5083 44.2158 17.4262 44.2062 17.4214 44.2006C17.3929 44.1657 17.4312 44.1389 17.4214 44.1068C17.4187 44.0979 17.379 44.1037 17.3755 44.1019C17.3424 44.0839 17.4117 44.0969 17.4194 44.0853C17.4413 44.0527 17.4391 44.0167 17.4341 43.9838C17.4322 43.9716 17.3864 43.9849 17.3852 43.974C17.3775 43.9099 17.3818 43.8432 17.4067 43.7806C17.4115 43.7688 17.4466 43.7763 17.4546 43.7738C17.5099 43.757 17.4357 43.732 17.4272 43.726C17.3941 43.6999 17.4242 43.6894 17.4184 43.6664C17.3899 43.5542 17.4107 43.4158 17.4233 43.3099C17.4396 43.1717 17.473 43.0638 17.4643 42.932C17.4628 42.9241 17.4177 42.9322 17.4165 42.9252C17.4053 42.832 17.4231 42.7402 17.4097 42.6469C17.4086 42.6392 17.3656 42.6499 17.3618 42.6381C17.3551 42.6128 17.3575 42.5806 17.3716 42.5551C17.3786 42.543 17.4161 42.5594 17.4223 42.5472C17.4365 42.5181 17.4392 42.4864 17.4321 42.4564C17.429 42.4438 17.3844 42.4627 17.3833 42.4467C17.3788 42.3339 17.371 42.2227 17.4292 42.1088C17.4332 42.1009 17.5249 42.0941 17.5073 42.0775C17.482 42.0763 17.4523 42.0761 17.4253 42.0756C17.4106 41.9112 17.4419 41.7482 17.4468 41.5834C17.4455 41.5772 17.3996 41.5883 17.3989 41.5756C17.3996 41.4978 17.386 41.4217 17.4341 41.3422C17.4388 41.3343 17.5241 41.3381 17.5112 41.3148C17.5085 41.3095 17.4971 41.2758 17.479 41.267C17.4742 41.2662 17.4371 41.2711 17.436 41.2601C17.43 41.1947 17.4391 41.1263 17.4634 41.0609C17.4673 41.0506 17.5072 41.0605 17.5122 41.0541C17.5347 41.0006 17.503 40.9421 17.5415 40.891C17.5674 40.8568 17.6411 40.8691 17.7134 40.851C17.7232 40.848 17.7256 40.8276 17.7671 40.8265C17.8727 40.8237 17.9885 40.8337 18.1011 40.8295C18.1251 40.8285 18.0993 40.8001 18.1577 40.8168ZM17.7612 50.1888C17.7329 50.1979 17.7657 50.2233 17.8013 50.2123C17.8299 50.2033 17.7969 50.1777 17.7612 50.1888ZM17.6186 49.6801C17.5688 49.6973 17.6798 49.7117 17.7007 49.7045C17.7666 49.6799 17.6696 49.6627 17.6186 49.6801ZM17.8589 47.3998C17.8115 47.3916 17.8076 47.4227 17.8569 47.4164C17.8589 47.416 17.8608 47.4001 17.8589 47.3998ZM17.8286 46.434C17.788 46.4347 17.7999 46.4496 17.8374 46.4447C17.8394 46.4432 17.8403 46.4338 17.8286 46.434ZM17.9341 45.7709C17.8565 45.7526 17.8478 45.8234 17.9292 45.808C17.9333 45.8072 17.9376 45.7731 17.9341 45.7709ZM17.7358 40.9193C17.6883 40.9112 17.6845 40.9424 17.7339 40.9359C17.7358 40.9352 17.7376 40.9201 17.7358 40.9193Z" fill="#191919"/>
</svg>
