<svg width="89" height="79" viewBox="0 0 89 79" fill="none" xmlns="http://www.w3.org/2000/svg">
<path d="M28.5 21.6299C44.2403 21.6299 57 34.3899 57 50.1299C57 50.7858 56.9695 51.4342 56.9258 52.0791C49.959 55.3609 45.1348 62.4439 45.1348 70.6553C45.1348 71.5013 45.1926 72.3332 45.292 73.1523C40.5822 76.5936 34.7799 78.6299 28.5 78.6299C12.76 78.6299 6.18477e-05 65.8701 0 50.1299C0 46.1835 0.802618 42.4244 2.25293 39.0068C11.6916 38.4917 19.4311 31.601 21.2403 22.5664C23.5584 21.9573 25.9909 21.6299 28.5 21.6299ZM28.5 32.6299C18.835 32.6299 11 40.4649 11 50.1299C11 59.7949 18.835 67.6299 28.5 67.6299C38.165 67.6299 46 59.7949 46 50.1299C46 40.4649 38.165 32.6299 28.5 32.6299ZM16.375 46.6299C17.6866 46.6299 18.7498 47.9057 18.75 49.4795C18.75 51.0535 17.6867 52.3301 16.375 52.3301C15.0633 52.3301 14 51.0535 14 49.4795C14.0002 47.9057 15.0634 46.6299 16.375 46.6299ZM22.375 46.6299C23.6866 46.6299 24.7498 47.9057 24.75 49.4795C24.75 51.0535 23.6867 52.3301 22.375 52.3301C21.0633 52.3301 20 51.0535 20 49.4795C20.0002 47.9057 21.0635 46.6299 22.375 46.6299ZM86.7716 8.15723C89.288 10.4524 88.4526 13.666 87.3048 15.3848L87.0723 15.708L87.0626 15.7197C86.9902 15.8118 86.8832 15.9437 86.751 16.0889L73.2227 29.0869L70.1505 27.9824C69.2135 26.8628 68.1315 24.8599 67.379 23.4443L52.9874 31.8838L50.9405 30.0195C49.5417 28.7447 49.1947 27.0191 49.3311 25.6611C49.4677 24.3031 50.0805 23.0495 50.9668 22.0762L68.878 2.40527L71.1085 3.01758C71.5727 3.14514 71.9953 3.27128 72.338 3.37207C72.6984 3.47809 72.958 3.55347 73.1837 3.61035C73.4007 3.66505 73.5297 3.68627 73.5967 3.69531C73.751 3.62343 74.2483 3.34328 75.2901 2.37305L77.838 0L86.7716 8.15723ZM77.8516 5.12793C74.3615 8.37827 73.4909 7.58702 70.0967 6.6543L53.7481 24.6084C53.0118 25.417 52.8614 26.4985 53.3731 27.1113L53.4844 27.2275L53.4864 27.2285L68.7921 18.2549C69.3072 18.7243 71.7125 23.9645 73.044 25.5557L83.9698 13.5566L84.1036 13.3975C84.7182 12.6091 84.8141 11.6259 84.3301 11.0557L84.2257 10.9463L77.8516 5.12793Z" fill="#191919"/>
</svg>
