<svg width="87" height="86" viewBox="0 0 87 86" fill="none" xmlns="http://www.w3.org/2000/svg">
<path d="M28.5 28.7921C44.2403 28.7922 57 41.5521 57 57.2921C57 57.9481 56.9695 58.5965 56.9258 59.2414C49.959 62.5231 45.1348 69.6062 45.1348 77.8175C45.1348 78.6636 45.1926 79.4955 45.292 80.3146C40.5822 83.7558 34.7799 85.7921 28.5 85.7921C12.76 85.7921 6.18477e-05 73.0324 0 57.2921C0 53.3457 0.802618 49.5867 2.25293 46.1691C11.6916 45.654 19.4311 38.7633 21.2403 29.7287C23.5584 29.1195 25.9909 28.7921 28.5 28.7921ZM28.5 39.7921C18.835 39.7921 11 47.6272 11 57.2921C11 66.9571 18.835 74.7921 28.5 74.7921C38.165 74.7921 46 66.9571 46 57.2921C46 47.6272 38.165 39.7921 28.5 39.7921ZM25.5625 50.7921C27.53 50.7921 29.125 52.7065 29.125 55.0675C29.1248 57.4284 27.5299 59.3419 25.5625 59.3419C23.5951 59.3419 22.0002 57.4284 22 55.0675C22 52.7065 23.595 50.7921 25.5625 50.7921ZM18.125 51.5675C19.7819 51.5675 21.125 53.1345 21.125 55.0675C21.1248 57.0004 19.7818 58.5675 18.125 58.5675C16.4683 58.5675 15.1252 57.0004 15.125 55.0675C15.125 53.1345 16.4682 51.5675 18.125 51.5675Z" fill="#191919"/>
<path d="M58.1603 4.67884C60.314 2.03644 64.2337 1.71696 66.7868 3.97572L82.3684 17.7607C85.3231 20.3748 84.9942 25.0801 81.7046 27.2577L53.3088 46.0541C51.0171 47.571 47.9879 47.3371 45.9563 45.4863L38.0705 38.3025C35.7157 36.1572 35.4477 32.5456 37.4603 30.0764L58.1603 4.67884Z" fill="white"/>
<path d="M82.3684 17.7606C85.3231 20.3747 84.9944 25.0802 81.7048 27.2578L53.3082 46.054L53.0918 46.1911C50.8287 47.5547 47.9241 47.2791 45.956 45.4862L49.3239 41.7899C49.6624 42.0982 50.1669 42.1377 50.5488 41.8851L78.9446 23.0882C79.4929 22.7253 79.5478 21.9411 79.0553 21.5055L63.474 7.72074C63.0486 7.34436 62.3957 7.3976 62.0367 7.83773L41.3358 33.235C41.0004 33.6466 41.0459 34.2486 41.4383 34.6062L49.3239 41.7899L45.956 45.4862L38.0704 38.3025C35.7893 36.2243 35.4664 32.77 37.2779 30.3113L37.4607 30.0766L58.1608 4.67868C60.2473 2.11904 63.9912 1.73893 66.5442 3.77146L66.7871 3.97591L82.3684 17.7606Z" fill="#191919"/>
<path d="M63.0605 11.2561L64.6215 12.5065L48.1444 33.0752L46.5835 31.8248L63.0605 11.2561Z" fill="#191919"/>
<path d="M67.8091 15.7409L69.2352 17.1431L50.7583 35.9359L49.3322 34.5337L67.8091 15.7409Z" fill="#191919"/>
<path d="M74.2085 19.3828L75.4555 20.9464L53.3505 38.5755L52.1035 37.0118L74.2085 19.3828Z" fill="#191919"/>
</svg>
