<svg width="54" height="70" viewBox="0 0 54 70" fill="none" xmlns="http://www.w3.org/2000/svg">
<path d="M48.3159 7.99672C48.9137 8.24431 49.1535 9.05667 48.8907 9.862C48.8735 9.9137 48.8552 9.96564 48.8339 10.0171L43.907 21.9269C42.4769 21.0947 39.2505 17.8214 38.7372 17.6091L29.7066 28.4332L29.7048 28.4325C29.0665 28.1681 28.8364 27.2591 29.1906 26.403L36.5626 8.58253C39.3597 8.36809 40.227 8.72635 41.9592 5.35755L48.3159 7.99672Z" fill="white"/>
<path d="M48.8339 10.0171L48.8906 9.862C49.137 9.10711 48.9417 8.34615 48.4239 8.04986L48.3159 7.99672L41.9591 5.35755C40.227 8.72635 39.3596 8.36809 36.5626 8.58253L29.1906 26.403C28.8585 27.2056 29.04 28.0546 29.59 28.3754L29.7048 28.4325L29.7066 28.4332L38.7372 17.6091C39.2504 17.8214 42.4769 21.0947 43.907 21.9269L48.8339 10.0171ZM45.3662 26.2475L42.3979 24.5197C41.3916 23.934 40.0368 22.7262 39.0883 21.8696L30.5974 32.0483L28.5571 31.2042C27.1625 30.6266 26.4341 29.4291 26.1674 28.3768C25.9008 27.3244 26.0187 26.2224 26.4184 25.2562L34.4952 5.73202L36.3333 5.59092C36.7158 5.56159 37.0664 5.54228 37.3505 5.5256C37.6496 5.50805 37.8647 5.49461 38.0493 5.4765C38.227 5.45907 38.3291 5.44033 38.3818 5.42908C38.4778 5.33388 38.7738 4.99083 39.2908 3.98528L40.5554 1.52607L49.4663 5.22606L49.465 5.22659C51.9746 6.26703 52.2225 8.89514 51.8292 10.489L51.7428 10.7925L51.7388 10.8046C51.7096 10.8929 51.6656 11.0199 51.606 11.1639L45.3662 26.2475Z" fill="#191919"/>
<g filter="url(#filter0_d_22_3)">
<path fill-rule="evenodd" clip-rule="evenodd" d="M22.9665 53.8816V46.7184C23.9781 45.6884 27.6986 44.2701 32.426 46.2795C31.0398 50.4282 27.3747 53.4876 22.9665 53.8816ZM21.0334 53.8816C19.2606 53.7232 17.6086 53.1344 16.1761 52.2159L19.1505 48.38V31.6574C19.7591 31.4904 20.3882 31.3766 21.0334 31.3189V53.8816ZM31.2926 36.5112C27.8612 38.2638 24.2905 37.8383 22.9665 37.2626V31.3189C26.467 31.6318 29.4982 33.626 31.2926 36.5112ZM33.0212 42.6003C33.0212 43.1348 32.9839 43.6602 32.9142 44.1751C28.7658 42.2981 24.9153 43.5451 22.9665 44.4711V39.1988C23.9183 39.4974 25.2818 39.8062 26.8533 39.8062C28.5011 39.8062 30.3775 39.4652 32.245 38.418C32.7457 39.7117 33.0212 41.1228 33.0212 42.6003ZM13.9287 50.3101C12.0993 48.2879 10.9788 45.5791 10.9788 42.6003C10.9788 39.6214 12.0993 36.9126 13.9287 34.8906V50.3101ZM21.9999 24.1003C20.4152 24.1003 18.8792 24.3126 17.4151 24.708C16.2725 30.5727 11.3843 35.0458 5.42293 35.3802C4.50694 37.5986 4 40.0385 4 42.6003C4 52.8176 12.0588 61.1003 21.9999 61.1003C25.9662 61.1003 29.6308 59.7788 32.6054 57.545C32.5426 57.0131 32.5065 56.4729 32.5065 55.9235C32.5065 50.5934 35.5532 45.9962 39.9533 43.8659C39.9809 43.4472 40 43.0262 40 42.6003C40 32.383 31.9412 24.1003 21.9999 24.1003Z" fill="#191919"/>
</g>
<path d="M35 43.1003C35 49.7277 29.6274 55.1003 23 55.1003C16.3726 55.1003 11 49.7277 11 43.1003C11 36.4729 16.3726 31.1003 23 31.1003C29.6274 31.1003 35 36.4729 35 43.1003Z" fill="white"/>
<path d="M20 40.1003C20 41.7572 18.8807 43.1003 17.5 43.1003C16.1193 43.1003 15 41.7572 15 40.1003C15 38.4435 16.1193 37.1003 17.5 37.1003C18.8807 37.1003 20 38.4435 20 40.1003Z" fill="#191919"/>
<path d="M27 40.1003C27 41.7572 25.8807 43.1003 24.5 43.1003C23.1193 43.1003 22 41.7572 22 40.1003C22 38.4435 23.1193 37.1003 24.5 37.1003C25.8807 37.1003 27 38.4435 27 40.1003Z" fill="#191919"/>
<defs>
<filter id="filter0_d_22_3" x="0" y="24.1003" width="44" height="45" filterUnits="userSpaceOnUse" color-interpolation-filters="sRGB">
<feFlood flood-opacity="0" result="BackgroundImageFix"/>
<feColorMatrix in="SourceAlpha" type="matrix" values="0 0 0 0 0 0 0 0 0 0 0 0 0 0 0 0 0 0 127 0" result="hardAlpha"/>
<feOffset dy="4"/>
<feGaussianBlur stdDeviation="2"/>
<feComposite in2="hardAlpha" operator="out"/>
<feColorMatrix type="matrix" values="0 0 0 0 0 0 0 0 0 0 0 0 0 0 0 0 0 0 0.25 0"/>
<feBlend mode="normal" in2="BackgroundImageFix" result="effect1_dropShadow_22_3"/>
<feBlend mode="normal" in="SourceGraphic" in2="effect1_dropShadow_22_3" result="shape"/>
</filter>
</defs>
</svg>
